<?xml version="1.0" encoding="UTF-8" standalone="no"?>
<!-- Created with Inkscape (http://www.inkscape.org/) -->

<svg
   xmlns:dc="http://purl.org/dc/elements/1.1/"
   xmlns:cc="http://creativecommons.org/ns#"
   xmlns:rdf="http://www.w3.org/1999/02/22-rdf-syntax-ns#"
   xmlns:svg="http://www.w3.org/2000/svg"
   xmlns="http://www.w3.org/2000/svg"
   xmlns:sodipodi="http://sodipodi.sourceforge.net/DTD/sodipodi-0.dtd"
   xmlns:inkscape="http://www.inkscape.org/namespaces/inkscape"
   width="52.44685mm"
   height="52.44685mm"
   viewBox="0 0 52.446848 52.446848"
   version="1.1"
   id="svg8"
   inkscape:version="0.92.2 (5c3e80d, 2017-08-06)"
   sodipodi:docname="favicon.svg"
   inkscape:export-filename="C:\Users\user\OneDrive\Personal\01. Hugo\images\favicon.png"
   inkscape:export-xdpi="219.87"
   inkscape:export-ydpi="219.87">
  <defs
     id="defs2" />
  <sodipodi:namedview
     id="base"
     pagecolor="#ffffff"
     bordercolor="#666666"
     borderopacity="1.0"
     inkscape:pageopacity="0.0"
     inkscape:pageshadow="2"
     inkscape:zoom="0.1767767"
     inkscape:cx="991.72296"
     inkscape:cy="426.33121"
     inkscape:document-units="mm"
     inkscape:current-layer="g4720"
     showgrid="false"
     fit-margin-top="0"
     fit-margin-left="0"
     fit-margin-right="0"
     fit-margin-bottom="0"
     inkscape:window-width="1303"
     inkscape:window-height="935"
     inkscape:window-x="4036"
     inkscape:window-y="203"
     inkscape:window-maximized="0" />
  <metadata
     id="metadata5">
    <rdf:RDF>
      <cc:Work
         rdf:about="">
        <dc:format>image/svg+xml</dc:format>
        <dc:type
           rdf:resource="http://purl.org/dc/dcmitype/StillImage" />
        <dc:title />
      </cc:Work>
    </rdf:RDF>
  </metadata>
  <g
     inkscape:groupmode="layer"
     id="layer3"
     inkscape:label="Layer 3"
     transform="translate(-35.105588,-34.095287)" />
  <g
     inkscape:label="Layer 1"
     inkscape:groupmode="layer"
     id="layer1"
     transform="translate(-43.897649,-16.529268)" />
  <g
     inkscape:groupmode="layer"
     id="layer2"
     inkscape:label="Layer 2"
     transform="translate(-35.105588,-34.095287)">
    <g
       id="g4720"
       transform="matrix(1.5221759,0,0,1.5221759,-31.502124,-5.9525108)">
      <g
         transform="matrix(0.20513329,0,0,0.20513329,40.127106,11.298128)"
         id="layer1-0"
         inkscape:label="Layer 1"
         style="fill:#4bbefb;fill-opacity:1">
        <path
           inkscape:export-ydpi="94.015999"
           inkscape:export-xdpi="94.015999"
           inkscape:connector-curvature="0"
           id="path913-1"
           d="m 106.25216,90.549737 a 47.307552,47.307552 0 0 0 -41.642219,24.886883 24.866789,24.866789 0 0 0 -6.878457,-0.9904 24.866789,24.866789 0 0 0 -24.86698,24.86697 24.866789,24.866789 0 0 0 1.012961,6.97398 37.482137,37.482137 0 0 0 -15.447832,30.26548 37.482137,37.482137 0 0 0 37.482236,37.48223 37.482137,37.482137 0 0 0 3.195438,-0.16252 c 0.168015,-1.41109 2.387392,-13.92748 28.406711,-17.22963 a 37.482137,37.482137 0 0 0 0.05174,-0.0915 h 2.7271 c 2.072086,2.14248 6.035447,5.31156 11.445742,5.39783 5.36618,0.0854 9.30685,-3.1522 11.39466,-5.39783 h 1.28294 c 28.37676,3.26101 29.72633,16.8071 29.77259,17.41871 a 41.970294,41.970294 0 0 0 40.6664,-41.90561 41.970294,41.970294 0 0 0 -31.79189,-40.66374 47.307552,47.307552 0 0 0 -46.81114,-40.850824 z m -1.73538,44.932523 c 10.06841,0.0576 10.41819,5.00179 10.41819,5.00179 0,0 11.97031,-0.30742 11.25403,13.70914 -0.25279,4.94712 -1.04094,8.89614 -1.95495,11.94061 1.94576,1.44209 2.70176,4.90493 0.75026,8.01281 -1.4501,2.30937 -3.26277,3.40061 -4.66147,3.92183 4.3e-4,0.11964 1.7e-4,0.47282 6.6e-4,0.5778 0.0176,3.79788 -1.50988,7.43169 -4.98852,11.42184 -3.47848,3.99016 -8.82877,5.6519 -8.82877,5.6519 0,0 -2.48495,2.43123 -5.14507,2.43123 -2.660108,0 -4.995809,-2.44319 -4.995809,-2.44319 0,0 -1.847024,0.0973 -7.474163,-4.19976 C 83.264021,187.21122 82.979902,179.567 82.979902,179.567 v -1.35594 c -1.412925,-0.50354 -3.285017,-1.59088 -4.774917,-3.96362 -2.062355,-3.28441 -1.102219,-6.96735 1.091902,-8.24033 -1.307778,-3.23459 -2.376914,-7.61097 -2.114147,-13.04115 -0.293632,-8.66768 12.686192,-17.13192 26.32838,-17.47375 0.34532,-0.009 0.68087,-0.0115 1.00566,-0.0101 z"
           style="opacity:1;fill:#4bbefb;fill-opacity:1;stroke:none;stroke-width:2.55471373;stroke-linecap:round;stroke-linejoin:round;stroke-miterlimit:4;stroke-dasharray:none;stroke-dashoffset:0;stroke-opacity:1;paint-order:fill markers stroke" />
        <g
           inkscape:export-ydpi="94.015999"
           inkscape:export-xdpi="94.015999"
           style="display:inline;fill:#4bbefb;fill-opacity:1"
           inkscape:label="Layer 2"
           id="layer2-9"
           transform="matrix(0.15156383,0,0,0.15156383,105.90861,205.06786)">
          <path
             inkscape:connector-curvature="0"
             id="path3713-8"
             d="M 73.130157,19.233435 123.21201,106.16796 31.174807,106.35695 87.493257,96.340576 57.633137,60.999802 Z"
             style="fill:#4bbefb;fill-opacity:1;stroke:none;stroke-width:0.26458332px;stroke-linecap:butt;stroke-linejoin:miter;stroke-opacity:1" />
          <path
             inkscape:connector-curvature="0"
             id="path3730-6"
             d="M 2.4568452,96.34613 H 30.049107 L 68.980655,13.191369 32.505951,43.618451 Z"
             style="fill:#4bbefb;fill-opacity:1;stroke:none;stroke-width:0.26458332px;stroke-linecap:butt;stroke-linejoin:miter;stroke-opacity:1" />
        </g>
      </g>
    </g>
  </g>
  <style
     id="style830"
     type="text/css">
	.st0{fill:#FFFFFF;}
	.st1{font-family:'OpenSans-Regular';}
	.st2{font-size:117.9146px;}
	.st3{font-size:46.1023px;}
</style>
</svg>
