<?xml version="1.0" encoding="UTF-8" standalone="no"?>
<svg
   xmlns:dc="http://purl.org/dc/elements/1.1/"
   xmlns:cc="http://creativecommons.org/ns#"
   xmlns:rdf="http://www.w3.org/1999/02/22-rdf-syntax-ns#"
   xmlns:svg="http://www.w3.org/2000/svg"
   xmlns="http://www.w3.org/2000/svg"
   xmlns:sodipodi="http://sodipodi.sourceforge.net/DTD/sodipodi-0.dtd"
   xmlns:inkscape="http://www.inkscape.org/namespaces/inkscape"
   width="52.447mm"
   height="52.447mm"
   version="1.1"
   viewBox="0 0 52.447 52.447"
   id="svg18"
   sodipodi:docname="marczakio.svg"
   inkscape:version="0.92.2 (5c3e80d, 2017-08-06)">
  <metadata
     id="metadata24">
    <rdf:RDF>
      <cc:Work
         rdf:about="">
        <dc:format>image/svg+xml</dc:format>
        <dc:type
           rdf:resource="http://purl.org/dc/dcmitype/StillImage" />
      </cc:Work>
    </rdf:RDF>
  </metadata>
  <defs
     id="defs22" />
  <sodipodi:namedview
     pagecolor="#ffffff"
     bordercolor="#666666"
     borderopacity="1"
     objecttolerance="10"
     gridtolerance="10"
     guidetolerance="10"
     inkscape:pageopacity="0"
     inkscape:pageshadow="2"
     inkscape:window-width="640"
     inkscape:window-height="480"
     id="namedview20"
     showgrid="false"
     inkscape:current-layer="svg18" />
  <g
     transform="translate(-35.106 -34.095)"
     id="g14"
     style="fill:#ffffff">
    <g
       transform="matrix(1.5222 0 0 1.5222 -31.502 -5.9525)"
       id="g12"
       style="fill:#ffffff">
      <g
         transform="matrix(.20513 0 0 .20513 40.127 11.298)"
         fill="#4bbefb"
         id="g10"
         style="fill:#ffffff">
        <path
           d="m106.25 90.55a47.308 47.308 0 0 0-41.642 24.887 24.867 24.867 0 0 0-6.8785-0.9904 24.867 24.867 0 0 0-24.867 24.867 24.867 24.867 0 0 0 1.013 6.974 37.482 37.482 0 0 0-15.448 30.265 37.482 37.482 0 0 0 37.482 37.482 37.482 37.482 0 0 0 3.1954-0.16252c0.16802-1.4111 2.3874-13.927 28.407-17.23a37.482 37.482 0 0 0 0.05174-0.0915h2.7271c2.0721 2.1425 6.0354 5.3116 11.446 5.3978 5.3662 0.0854 9.3068-3.1522 11.395-5.3978h1.2829c28.377 3.261 29.726 16.807 29.773 17.419a41.97 41.97 0 0 0 40.666-41.906 41.97 41.97 0 0 0-31.792-40.664 47.308 47.308 0 0 0-46.811-40.851zm-1.7354 44.933c10.068 0.0576 10.418 5.0018 10.418 5.0018s11.97-0.30742 11.254 13.709c-0.25279 4.9471-1.0409 8.8961-1.955 11.941 1.9458 1.4421 2.7018 4.9049 0.75026 8.0128-1.4501 2.3094-3.2628 3.4006-4.6615 3.9218 4.3e-4 0.11964 1.7e-4 0.47282 6.6e-4 0.5778 0.0176 3.7979-1.5099 7.4317-4.9885 11.422-3.4785 3.9902-8.8288 5.6519-8.8288 5.6519s-2.485 2.4312-5.1451 2.4312c-2.6601 0-4.9958-2.4432-4.9958-2.4432s-1.847 0.0973-7.4742-4.1998c-5.6271-4.297-5.9113-11.941-5.9113-11.941v-1.3559c-1.4129-0.50354-3.285-1.5909-4.7749-3.9636-2.0624-3.2844-1.1022-6.9674 1.0919-8.2403-1.3078-3.2346-2.3769-7.611-2.1141-13.041-0.29363-8.6677 12.686-17.132 26.328-17.474 0.34532-9e-3 0.68087-0.0115 1.0057-0.0101z"
           style="paint-order:fill markers stroke;fill:#ffffff"
           id="path2" />
        <g
           transform="matrix(.15156 0 0 .15156 105.91 205.07)"
           id="g8"
           style="fill:#ffffff">
          <path
             d="m73.13 19.233 50.082 86.935-92.037 0.18899 56.318-10.016-29.86-35.341z"
             id="path4"
             style="fill:#ffffff" />
          <path
             d="m2.4568 96.346h27.592l38.932-83.155-36.475 30.427z"
             id="path6"
             style="fill:#ffffff" />
        </g>
      </g>
    </g>
  </g>
  <style
     type="text/css"
     id="style16">.st0{fill:#FFFFFF;}
	.st1{font-family:'OpenSans-Regular';}
	.st2{font-size:117.9146px;}
	.st3{font-size:46.1023px;}</style>
</svg>
