<?xml version="1.0" encoding="utf-8"?>
<!-- Generator: Adobe Illustrator 24.0.1, SVG Export Plug-In . SVG Version: 6.00 Build 0)  -->
<svg version="1.1" id="Layer_1" xmlns="http://www.w3.org/2000/svg" xmlns:xlink="http://www.w3.org/1999/xlink" x="0px" y="0px"
	 viewBox="0 0 180.25 72.75" style="enable-background:new 0 0 180.25 72.75;" xml:space="preserve">
<style type="text/css">
	.st0{fill:#002050;}
	.st1{fill:#FFFFFF;}
</style>
<g>
	<rect class="st0" width="180.25" height="72.75"/>
	<g>
		<path class="st1" d="M28.22,37.72c-0.11,0.49-0.22,1.27-0.33,2.35l-0.09,0.71h-0.07c-0.05-0.79-0.21-1.77-0.48-2.95l-2.68-11.65
			h-5.16v19.13h3.05V35.17c0-1.75-0.05-3.53-0.13-5.32h0.11l0.52,3.39l2.92,12.07h3.36l2.79-12.25c0.26-1.33,0.45-2.41,0.57-3.22
			h0.08c-0.09,1.93-0.14,3.37-0.14,4.33v11.13h3.16V26.18h-4.96L28.22,37.72z M55.31,38.78h1.54c1.82,0,3.29-0.61,4.4-1.84
			c1.11-1.23,1.67-2.78,1.67-4.67c0-1.98-0.51-3.49-1.52-4.54c-1-1.04-2.42-1.56-4.24-1.56h-5.52v19.13h3.68V38.78z M55.31,29.38
			h1.23c0.75,0,1.37,0.25,1.84,0.77c0.47,0.51,0.71,1.28,0.71,2.31c0,2.1-0.83,3.15-2.51,3.15h-1.27V29.38z M41.68,45.31h3.94
			l4.88-19.13h-3.71l-2.65,12.54c-0.12,0.7-0.22,1.36-0.28,1.99l-0.07,0.51H43.7c-0.06-0.98-0.16-1.79-0.29-2.43l-2.66-12.61h-3.82
			L41.68,45.31z M39.78,68.09L8.06,36.37L39.76,4.66l31.73,31.73L39.78,68.09z"/>
		<path class="st1" d="M90.69,27.6v-9.44c0-0.81,0.04-2.04,0.11-3.68h-0.07c-0.1,0.69-0.26,1.59-0.49,2.73L87.89,27.6h-2.85
			l-2.48-10.24l-0.44-2.87h-0.09c0.07,1.52,0.11,3.03,0.11,4.51v8.6h-2.59V11.38h4.38l2.27,9.88c0.23,1,0.36,1.83,0.41,2.5h0.06
			l0.08-0.6c0.1-0.91,0.19-1.58,0.28-1.99l2.14-9.79h4.21V27.6H90.69z"/>
		<path class="st1" d="M97.38,14.42c-0.52,0-0.95-0.18-1.28-0.53c-0.33-0.35-0.5-0.78-0.5-1.28c0-0.54,0.17-0.98,0.51-1.3
			c0.34-0.32,0.76-0.49,1.27-0.49c0.54,0,0.98,0.17,1.31,0.5c0.33,0.33,0.5,0.76,0.5,1.29c0,0.53-0.16,0.96-0.5,1.3
			C98.36,14.25,97.92,14.42,97.38,14.42z M95.92,27.6V16.02h2.95V27.6H95.92z"/>
		<path class="st1" d="M107.6,27.14c-0.57,0.45-1.36,0.67-2.37,0.67c-1.3,0-2.37-0.54-3.22-1.62c-0.85-1.08-1.28-2.45-1.28-4.11
			c0-1.95,0.45-3.48,1.34-4.59c0.89-1.11,2.06-1.66,3.51-1.66c0.94,0,1.61,0.16,2.01,0.49v2.59c-0.42-0.44-0.94-0.67-1.56-0.67
			c-0.69,0-1.23,0.33-1.63,1c-0.4,0.66-0.61,1.54-0.61,2.64c0,1.15,0.18,2.02,0.55,2.62c0.37,0.6,0.88,0.9,1.55,0.9
			c0.65,0,1.21-0.22,1.7-0.65V27.14z"/>
		<path class="st1" d="M115.52,18.78c-0.34-0.14-0.68-0.22-1.02-0.22c-1.43,0-2.15,1.07-2.15,3.2v5.84h-2.95V16.02h2.95v1.92h0.05
			c0.41-1.42,1.2-2.13,2.39-2.13c0.23,0,0.48,0.04,0.73,0.11V18.78z"/>
		<path class="st1" d="M120.45,27.8c-1.49,0-2.65-0.52-3.46-1.57c-0.81-1.05-1.22-2.53-1.22-4.45c0-1.91,0.42-3.38,1.26-4.42
			c0.84-1.04,1.99-1.56,3.47-1.56c1.49,0,2.64,0.51,3.47,1.54c0.83,1.03,1.24,2.45,1.24,4.28c0,1.99-0.41,3.52-1.23,4.58
			C123.16,27.27,121.99,27.8,120.45,27.8z M120.5,18.24c-1.11,0-1.66,1.17-1.66,3.52c0,2.41,0.55,3.61,1.66,3.61
			c1.1,0,1.65-1.24,1.65-3.72C122.15,19.38,121.6,18.24,120.5,18.24z"/>
		<path class="st1" d="M126.71,27.23v-2.57c0.82,0.57,1.68,0.86,2.57,0.86c0.91,0,1.37-0.38,1.37-1.14c0-0.3-0.12-0.56-0.36-0.76
			c-0.24-0.21-0.58-0.44-1.03-0.7c-1.08-0.62-1.78-1.21-2.11-1.78c-0.32-0.57-0.49-1.18-0.49-1.83c0-1.04,0.36-1.88,1.07-2.53
			c0.71-0.65,1.7-0.97,2.96-0.97c0.87,0,1.66,0.14,2.38,0.43v2.51c-0.8-0.44-1.5-0.66-2.1-0.66c-0.91,0-1.37,0.38-1.37,1.14
			c0,0.24,0.08,0.46,0.24,0.67c0.16,0.2,0.57,0.49,1.24,0.86c1,0.57,1.67,1.13,1.99,1.66c0.33,0.54,0.49,1.15,0.49,1.86
			c0,1.04-0.35,1.89-1.05,2.54c-0.7,0.65-1.71,0.98-3.04,0.98C128.33,27.8,127.41,27.61,126.71,27.23z"/>
		<path class="st1" d="M139.49,27.8c-1.49,0-2.65-0.52-3.46-1.57c-0.81-1.05-1.22-2.53-1.22-4.45c0-1.91,0.42-3.38,1.26-4.42
			c0.84-1.04,1.99-1.56,3.47-1.56c1.48,0,2.64,0.51,3.47,1.54c0.83,1.03,1.24,2.45,1.24,4.28c0,1.99-0.41,3.52-1.23,4.58
			C142.2,27.27,141.02,27.8,139.49,27.8z M139.54,18.24c-1.11,0-1.66,1.17-1.66,3.52c0,2.41,0.55,3.61,1.66,3.61
			c1.1,0,1.65-1.24,1.65-3.72C141.19,19.38,140.64,18.24,139.54,18.24z"/>
		<path class="st1" d="M151.19,12.81c-0.24-0.09-0.53-0.14-0.86-0.14c-0.82,0-1.23,0.49-1.23,1.48v1.86h1.88v2.41h-1.88v9.17h-2.94
			v-9.17h-1.35v-2.41h1.35v-1.74c0-1.26,0.33-2.25,0.98-2.96c0.66-0.71,1.61-1.07,2.86-1.07c0.27,0,0.49,0.02,0.69,0.06l0.5,0.1
			V12.81z"/>
		<path class="st1" d="M157.61,27.44c-0.61,0.24-1.25,0.36-1.95,0.36c-1.98,0-2.96-1.18-2.96-3.54v-5.84h-2.35v-2.41h2.35v-2.59
			l0.24-0.08c1.71-0.57,2.61-0.85,2.71-0.85v3.52h1.97v2.41h-1.97v5.59c0,0.9,0.36,1.36,1.07,1.36c0.33,0,0.63-0.07,0.89-0.2V27.44z
			"/>
		<path class="st1" d="M161.92,18.57c-0.81,0-1.48-0.26-2.02-0.78c-0.54-0.52-0.81-1.17-0.81-1.97c0-0.77,0.27-1.43,0.82-1.97
			c0.55-0.54,1.22-0.81,2.03-0.81c0.8,0,1.46,0.26,2,0.78c0.54,0.52,0.81,1.18,0.81,1.97c0,0.78-0.27,1.43-0.82,1.97
			C163.38,18.3,162.71,18.57,161.92,18.57z M161.93,13.45c-0.68,0-1.25,0.23-1.71,0.68c-0.45,0.46-0.68,1.02-0.68,1.68
			c0,0.68,0.23,1.24,0.69,1.69c0.46,0.45,1.03,0.67,1.69,0.67c0.66,0,1.22-0.23,1.68-0.68c0.46-0.45,0.69-1.02,0.69-1.69
			c0-0.67-0.23-1.24-0.68-1.69C163.16,13.67,162.6,13.45,161.93,13.45z M162.54,17.52l-0.31-0.88c-0.12-0.34-0.29-0.52-0.5-0.52
			h-0.3v1.39h-0.68v-3.47h1.13c0.44,0,0.77,0.09,1,0.26c0.23,0.17,0.34,0.41,0.34,0.72c0,0.48-0.28,0.78-0.84,0.92v0.02
			c0.23,0.06,0.41,0.25,0.54,0.57l0.42,0.99H162.54z M161.43,14.6v1h0.48c0.18,0,0.32-0.05,0.43-0.14c0.11-0.09,0.16-0.22,0.16-0.37
			c0-0.33-0.22-0.49-0.67-0.49H161.43z"/>
		<path class="st1" d="M88.03,44.98v-8.15c0-0.47,0.02-0.9,0.05-1.28l0.06-0.92h-0.06c-0.1,0.67-0.22,1.19-0.36,1.54l-2.87,8.82
			h-0.92l-2.9-8.76c-0.07-0.2-0.18-0.75-0.35-1.65h-0.07c0.07,0.85,0.1,1.64,0.1,2.37v8.04h-1.15V32.81h1.65l2.88,8.8
			c0.13,0.4,0.24,0.86,0.33,1.37h0.03l0.33-1.44l2.82-8.72h1.59v12.17H88.03z"/>
		<path class="st1" d="M94.48,45.13c-1.04,0-1.84-0.39-2.41-1.18c-0.56-0.79-0.84-1.87-0.84-3.25c0-1.44,0.29-2.56,0.88-3.36
			c0.59-0.8,1.4-1.2,2.43-1.2c1.02,0,1.81,0.39,2.39,1.18c0.57,0.78,0.86,1.86,0.86,3.22c0,1.45-0.28,2.58-0.85,3.39
			C96.38,44.72,95.55,45.13,94.48,45.13z M94.53,37.21c-0.64,0-1.14,0.3-1.49,0.89c-0.35,0.59-0.53,1.44-0.53,2.54
			c0,2.27,0.67,3.4,2.02,3.4c1.31,0,1.96-1.15,1.96-3.45c0-1.09-0.17-1.92-0.51-2.51C95.64,37.5,95.16,37.21,94.53,37.21z"/>
		<path class="st1" d="M99.17,44.68v-1.23c0.64,0.43,1.27,0.65,1.89,0.65c1.03,0,1.54-0.45,1.54-1.36c0-0.29-0.1-0.55-0.3-0.79
			c-0.2-0.24-0.57-0.51-1.13-0.83c-0.84-0.47-1.38-0.9-1.63-1.29c-0.24-0.39-0.36-0.82-0.36-1.28c0-0.71,0.25-1.29,0.75-1.73
			c0.5-0.45,1.15-0.68,1.95-0.68c0.63,0,1.19,0.12,1.68,0.35v1.18c-0.57-0.33-1.12-0.49-1.65-0.49c-0.45,0-0.81,0.12-1.07,0.36
			c-0.26,0.24-0.39,0.56-0.39,0.96c0,0.27,0.09,0.53,0.25,0.77c0.17,0.24,0.57,0.54,1.21,0.9c0.83,0.46,1.36,0.89,1.59,1.27
			c0.23,0.38,0.35,0.81,0.35,1.29c0,0.7-0.25,1.27-0.74,1.73c-0.49,0.46-1.17,0.68-2.04,0.68C100.35,45.13,99.71,44.98,99.17,44.68z
			"/>
		<path class="st1" d="M108.8,44.91c-0.35,0.15-0.72,0.22-1.13,0.22c-1.26,0-1.89-0.75-1.89-2.24v-5.56h-1.19v-1.04h1.19v-2.16
			l1.23-0.4v2.55h1.79v1.04h-1.79v5.44c0,0.85,0.33,1.28,0.99,1.28c0.29,0,0.55-0.06,0.8-0.19V44.91z"/>
		<path class="st1" d="M117.39,44.98h-1.29l-3.37-12.17h1.39l2.42,9.18c0.1,0.38,0.18,0.8,0.22,1.26h0.03
			c0.01-0.14,0.1-0.57,0.26-1.3l2.52-9.15h1.34L117.39,44.98z"/>
		<path class="st1" d="M125.8,44.98v-1.31h-0.04c-0.44,0.97-1.18,1.46-2.21,1.46c-0.64,0-1.16-0.23-1.55-0.68
			c-0.39-0.45-0.59-1.04-0.59-1.74c0-1.5,0.78-2.43,2.33-2.78l2.05-0.47v-0.58c0-1.13-0.5-1.69-1.49-1.69
			c-0.71,0-1.44,0.3-2.21,0.91v-1.25c0.8-0.48,1.6-0.71,2.38-0.71c1.7,0,2.55,0.94,2.55,2.83v6.02H125.8z M125.8,40.4l-1.71,0.38
			c-0.96,0.21-1.44,0.79-1.44,1.72c0,0.48,0.13,0.86,0.37,1.14c0.25,0.28,0.57,0.42,0.97,0.42c0.55,0,0.99-0.22,1.32-0.67
			c0.32-0.45,0.49-1.03,0.49-1.75V40.4z"/>
		<path class="st1" d="M129.15,44.98V32.11h1.23v12.86H129.15z"/>
		<path class="st1" d="M137.14,44.98v-1.31h-0.04c-0.47,0.97-1.21,1.46-2.21,1.46c-1.58,0-2.38-0.92-2.38-2.77v-6.07h1.23v5.77
			c0,1.33,0.52,1.99,1.57,1.99c0.54,0,0.98-0.2,1.32-0.59c0.34-0.39,0.51-0.92,0.51-1.58v-5.59h1.23v8.69H137.14z"/>
		<path class="st1" d="M144.44,44.98v-1.31h-0.04c-0.44,0.97-1.18,1.46-2.21,1.46c-0.64,0-1.15-0.23-1.55-0.68
			c-0.39-0.45-0.59-1.04-0.59-1.74c0-1.5,0.77-2.43,2.32-2.78l2.05-0.47v-0.58c0-1.13-0.5-1.69-1.49-1.69
			c-0.71,0-1.44,0.3-2.21,0.91v-1.25c0.8-0.48,1.6-0.71,2.38-0.71c1.7,0,2.55,0.94,2.55,2.83v6.02H144.44z M144.44,40.4l-1.71,0.38
			c-0.96,0.21-1.44,0.79-1.44,1.72c0,0.48,0.13,0.86,0.37,1.14c0.25,0.28,0.57,0.42,0.97,0.42c0.55,0,0.99-0.22,1.32-0.67
			c0.32-0.45,0.49-1.03,0.49-1.75V40.4z"/>
		<path class="st1" d="M149.06,43.86h-0.04v1.11h-1.23V32.11h1.23v5.6h0.04c0.46-1.05,1.22-1.58,2.29-1.58c0.87,0,1.53,0.36,2,1.1
			c0.47,0.73,0.7,1.72,0.7,2.99c0,1.55-0.26,2.76-0.79,3.62c-0.53,0.86-1.28,1.29-2.26,1.29C150.11,45.13,149.46,44.71,149.06,43.86
			z M149,40.13v1.21c0,0.79,0.16,1.44,0.47,1.95c0.32,0.51,0.75,0.76,1.31,0.76c1.32,0,1.98-1.24,1.98-3.72
			c0-1.01-0.16-1.79-0.47-2.32c-0.32-0.54-0.76-0.8-1.33-0.8c-0.62,0-1.1,0.27-1.45,0.82C149.17,38.58,149,39.28,149,40.13z"/>
		<path class="st1" d="M155.81,44.98V32.11h1.23v12.86H155.81z"/>
		<path class="st1" d="M160.05,40.93c0,2.1,0.76,3.15,2.28,3.15c0.66,0,1.33-0.23,2.01-0.7v1.16c-0.68,0.39-1.4,0.58-2.17,0.58
			c-1.1,0-1.94-0.38-2.52-1.15c-0.58-0.77-0.87-1.9-0.87-3.39c0-1.31,0.29-2.38,0.87-3.21c0.58-0.83,1.38-1.24,2.38-1.24
			c1.88,0,2.82,1.32,2.82,3.96v0.83H160.05z M163.63,39.94c0-1.85-0.55-2.78-1.65-2.78c-0.55,0-0.99,0.23-1.34,0.7
			c-0.34,0.47-0.54,1.16-0.58,2.08H163.63z"/>
		<path class="st1" d="M80.87,57.76v4.59h-1.3V50.19h2.78c1.06,0,1.88,0.31,2.45,0.92c0.58,0.62,0.87,1.51,0.87,2.67
			c0,1.14-0.32,2.09-0.95,2.85c-0.63,0.75-1.5,1.13-2.61,1.13H80.87z M80.87,51.34v5.26h1.15c0.74,0,1.31-0.25,1.7-0.73
			c0.39-0.49,0.59-1.15,0.59-1.97c0-1.7-0.72-2.55-2.17-2.55H80.87z"/>
		<path class="st1" d="M91.3,54.88c-0.29-0.11-0.56-0.17-0.8-0.17c-1.26,0-1.88,1.07-1.88,3.22v4.43h-1.23v-8.69h1.23v1.53h0.04
			c0.29-1.11,0.94-1.66,1.94-1.66c0.28,0,0.52,0.03,0.7,0.1V54.88z"/>
		<path class="st1" d="M94.84,62.5c-1.04,0-1.84-0.39-2.41-1.18c-0.56-0.79-0.84-1.87-0.84-3.25c0-1.44,0.29-2.56,0.88-3.36
			c0.59-0.8,1.4-1.2,2.43-1.2c1.02,0,1.81,0.39,2.39,1.18c0.57,0.78,0.86,1.86,0.86,3.22c0,1.45-0.29,2.58-0.85,3.38
			C96.74,62.1,95.92,62.5,94.84,62.5z M94.89,54.59c-0.64,0-1.14,0.3-1.49,0.89c-0.35,0.59-0.53,1.44-0.53,2.54
			c0,2.27,0.67,3.4,2.02,3.4c1.3,0,1.96-1.15,1.96-3.45c0-1.09-0.17-1.92-0.51-2.51C96,54.88,95.52,54.59,94.89,54.59z"/>
		<path class="st1" d="M103.17,50.53c-0.2-0.07-0.43-0.1-0.7-0.1c-0.8,0-1.21,0.49-1.21,1.48v1.76h1.74v1.04h-1.74v7.65h-1.23v-7.65
			h-1.25v-1.04h1.25v-1.74c0-0.8,0.21-1.43,0.62-1.88c0.41-0.46,0.99-0.69,1.75-0.69c0.21,0,0.46,0.03,0.76,0.08V50.53z"/>
		<path class="st1" d="M104.81,58.3c0,2.1,0.76,3.15,2.28,3.15c0.66,0,1.33-0.23,2.01-0.7v1.16c-0.68,0.39-1.4,0.58-2.17,0.58
			c-1.1,0-1.94-0.38-2.52-1.15c-0.58-0.77-0.87-1.9-0.87-3.39c0-1.31,0.29-2.38,0.88-3.21c0.58-0.83,1.38-1.24,2.38-1.24
			c1.88,0,2.82,1.32,2.82,3.96v0.83H104.81z M108.39,57.31c0-1.85-0.55-2.78-1.65-2.78c-0.55,0-0.99,0.24-1.34,0.71
			c-0.34,0.47-0.54,1.16-0.58,2.08H108.39z"/>
		<path class="st1" d="M110.86,62.05v-1.23c0.64,0.43,1.27,0.65,1.89,0.65c1.03,0,1.54-0.45,1.54-1.36c0-0.29-0.1-0.55-0.3-0.79
			c-0.2-0.24-0.57-0.51-1.13-0.83c-0.84-0.47-1.38-0.9-1.63-1.29c-0.24-0.39-0.36-0.82-0.36-1.28c0-0.71,0.25-1.29,0.75-1.73
			c0.5-0.45,1.15-0.67,1.95-0.67c0.63,0,1.19,0.12,1.68,0.35v1.18c-0.57-0.33-1.12-0.49-1.65-0.49c-0.45,0-0.81,0.12-1.07,0.36
			c-0.26,0.24-0.39,0.56-0.39,0.96c0,0.27,0.09,0.53,0.26,0.77c0.17,0.24,0.57,0.54,1.2,0.9c0.83,0.46,1.36,0.89,1.59,1.27
			c0.23,0.38,0.35,0.81,0.35,1.29c0,0.69-0.25,1.27-0.74,1.73c-0.49,0.46-1.17,0.68-2.04,0.68C112.04,62.5,111.4,62.35,110.86,62.05
			z"/>
		<path class="st1" d="M116.88,62.05v-1.23c0.64,0.43,1.27,0.65,1.89,0.65c1.02,0,1.54-0.45,1.54-1.36c0-0.29-0.1-0.55-0.3-0.79
			c-0.2-0.24-0.57-0.51-1.13-0.83c-0.84-0.47-1.38-0.9-1.63-1.29c-0.24-0.39-0.36-0.82-0.36-1.28c0-0.71,0.25-1.29,0.75-1.73
			c0.5-0.45,1.15-0.67,1.95-0.67c0.63,0,1.19,0.12,1.68,0.35v1.18c-0.57-0.33-1.12-0.49-1.65-0.49c-0.45,0-0.81,0.12-1.07,0.36
			c-0.26,0.24-0.39,0.56-0.39,0.96c0,0.27,0.09,0.53,0.26,0.77c0.17,0.24,0.57,0.54,1.2,0.9c0.83,0.46,1.36,0.89,1.59,1.27
			c0.23,0.38,0.35,0.81,0.35,1.29c0,0.69-0.25,1.27-0.74,1.73c-0.49,0.46-1.17,0.68-2.04,0.68
			C118.05,62.5,117.42,62.35,116.88,62.05z"/>
		<path class="st1" d="M123.88,51.79c-0.24,0-0.45-0.08-0.62-0.25c-0.17-0.17-0.25-0.38-0.25-0.62c0-0.25,0.09-0.46,0.26-0.62
			c0.17-0.16,0.38-0.23,0.62-0.23c0.24,0,0.45,0.08,0.62,0.23c0.17,0.16,0.25,0.36,0.25,0.62c0,0.25-0.08,0.46-0.24,0.62
			C124.35,51.71,124.14,51.79,123.88,51.79z M123.26,62.35v-8.69h1.23v8.69H123.26z"/>
		<path class="st1" d="M129.48,62.5c-1.04,0-1.84-0.39-2.4-1.18c-0.56-0.79-0.85-1.87-0.85-3.25c0-1.44,0.29-2.56,0.88-3.36
			c0.59-0.8,1.4-1.2,2.44-1.2c1.02,0,1.81,0.39,2.39,1.18c0.57,0.78,0.86,1.86,0.86,3.22c0,1.45-0.29,2.58-0.85,3.38
			C131.38,62.1,130.56,62.5,129.48,62.5z M129.54,54.59c-0.64,0-1.13,0.3-1.49,0.89c-0.35,0.59-0.53,1.44-0.53,2.54
			c0,2.27,0.67,3.4,2.02,3.4c1.31,0,1.96-1.15,1.96-3.45c0-1.09-0.17-1.92-0.51-2.51C130.65,54.88,130.16,54.59,129.54,54.59z"/>
		<path class="st1" d="M139.15,62.35v-5.77c0-1.33-0.52-1.99-1.57-1.99c-0.54,0-0.97,0.19-1.3,0.58c-0.33,0.39-0.5,0.92-0.5,1.59
			v5.59h-1.23v-8.69h1.23v1.31h0.04c0.44-0.97,1.17-1.46,2.21-1.46c1.57,0,2.36,0.93,2.36,2.77v6.07H139.15z"/>
		<path class="st1" d="M146.38,62.35v-1.31h-0.03c-0.44,0.97-1.18,1.46-2.21,1.46c-0.64,0-1.15-0.23-1.55-0.68
			c-0.39-0.46-0.59-1.04-0.59-1.74c0-1.5,0.77-2.43,2.32-2.78l2.05-0.47v-0.58c0-1.13-0.5-1.69-1.49-1.69
			c-0.71,0-1.44,0.3-2.21,0.91v-1.25c0.8-0.47,1.6-0.71,2.38-0.71c1.7,0,2.55,0.94,2.55,2.83v6.02H146.38z M146.38,57.78l-1.71,0.38
			c-0.96,0.22-1.44,0.79-1.44,1.72c0,0.48,0.13,0.86,0.38,1.15c0.25,0.28,0.57,0.42,0.97,0.42c0.55,0,0.99-0.22,1.32-0.67
			c0.33-0.45,0.49-1.03,0.49-1.75V57.78z"/>
		<path class="st1" d="M149.73,62.35V49.49h1.23v12.86H149.73z"/>
	</g>
</g>
</svg>
