<svg id="Layer_1" data-name="Layer 1" xmlns="http://www.w3.org/2000/svg" viewBox="0 0 2562.99 356.19"><path d="M118.51,280.62H260.29c75,0,123.42,56.63,123.42,122.44s-48.4,122.43-123.42,122.43H196.9v93.89H118.51ZM304.83,403.06c0-31.46-21.3-58.56-54.21-58.56H196.9V461.61h53.72C283.53,461.61,304.83,434.52,304.83,403.06Z" transform="translate(-118.51 -271.91)" style="fill:#ff424d"/><path d="M683.76,619.38,670.7,578.25H550.2l-13.07,41.13H453.39l121-338.76h72.1L768.94,619.38Zm-73.08-242L569.06,516.79h82.26Z" transform="translate(-118.51 -271.91)" style="fill:#ff424d"/><path d="M900.56,348.37H824.12V280.62h231.79v67.75H979v271h-78.4Z" transform="translate(-118.51 -271.91)" style="fill:#ff424d"/><path d="M1177.86,280.62h142.3c75,0,123.4,56.63,123.4,122.44,0,47.43-25.17,89.52-67.28,109.37l67.76,107h-91l-60-93.89h-36.78v93.89h-78.4Zm186.32,122.44c0-31.46-21.3-58.56-54.2-58.56h-53.72V461.61H1310C1342.88,461.61,1364.18,434.52,1364.18,403.06Z" transform="translate(-118.51 -271.91)" style="fill:#ff424d"/><path d="M1655,343.54v76.93h128.25V482H1655v74.51h128.25v62.92H1576.65V280.62h206.64v62.92Z" transform="translate(-118.51 -271.91)" style="fill:#ff424d"/><path d="M1910.56,450c0-92.92,66.79-178.09,179.56-178.09,112.26,0,179.05,85.17,179.05,178.09s-66.79,178.09-179.05,178.09C1977.35,628.09,1910.56,542.92,1910.56,450Zm278.76,0c0-55.65-37.75-107.43-99.2-107.43-61.95,0-99.21,51.78-99.21,107.43s37.26,107.43,99.21,107.43C2151.57,557.43,2189.32,505.65,2189.32,450Z" transform="translate(-118.51 -271.91)" style="fill:#ff424d"/><path d="M2603.58,501.29V280.62h77.91V619.38h-81.78l-122-217.78V619.38h-78.39V280.62h81.78Z" transform="translate(-118.51 -271.91)" style="fill:#ff424d"/></svg>