<?xml version="1.0" encoding="utf-8"?>
<!-- Generator: Adobe Illustrator 24.1.2, SVG Export Plug-In . SVG Version: 6.00 Build 0)  -->
<svg version="1.1" id="Layer_1" xmlns="http://www.w3.org/2000/svg" xmlns:xlink="http://www.w3.org/1999/xlink" x="0px" y="0px"
	 viewBox="0 0 2800 900" style="enable-background:new 0 0 2800 900;" xml:space="preserve">
<style type="text/css">
	.st0{fill:#141518;}
</style>
<g>
	<g>
		<path class="st0" d="M118.51,280.62h141.79c75.02,0,123.42,56.63,123.42,122.44s-48.4,122.42-123.42,122.42H196.9v93.89h-78.4
			V280.62z M304.83,403.06c0-31.46-21.3-58.56-54.21-58.56H196.9v117.11h53.72C283.53,461.61,304.83,434.52,304.83,403.06z"/>
		<path class="st0" d="M683.76,619.38l-13.05-41.13H550.2l-13.07,41.13h-83.73l120.99-338.76h72.11l122.44,338.76H683.76z
			 M610.68,377.41l-41.62,139.38h82.27L610.68,377.41z"/>
		<path class="st0" d="M900.56,348.37h-76.45v-67.75h231.79v67.75h-76.95v271.01h-78.4V348.37z"/>
		<path class="st0" d="M1177.86,280.62h142.29c75,0,123.4,56.63,123.4,122.44c0,47.43-25.17,89.52-67.28,109.37l67.77,106.95h-90.98
			l-60.03-93.89h-36.78v93.89h-78.4V280.62z M1364.18,403.06c0-31.46-21.3-58.56-54.21-58.56h-53.72v117.11h53.72
			C1342.88,461.61,1364.18,434.52,1364.18,403.06z"/>
		<path class="st0" d="M1655.04,343.54v76.93h128.25v61.47h-128.25v74.51h128.25v62.92h-206.64V280.62h206.64v62.92H1655.04z"/>
		<path class="st0" d="M1910.56,450c0-92.92,66.79-178.09,179.56-178.09c112.26,0,179.05,85.18,179.05,178.09
			s-66.79,178.09-179.05,178.09C1977.35,628.09,1910.56,542.92,1910.56,450z M2189.32,450c0-55.65-37.75-107.43-99.21-107.43
			c-61.94,0-99.21,51.78-99.21,107.43s37.26,107.43,99.21,107.43C2151.57,557.43,2189.32,505.65,2189.32,450z"/>
		<path class="st0" d="M2603.58,501.29V280.62h77.91v338.76h-81.78L2477.74,401.6v217.78h-78.4V280.62h81.78L2603.58,501.29z"/>
	</g>
</g>
</svg>
