<?xml version="1.0" encoding="UTF-8" standalone="no"?>
<svg width="20px" height="20px" viewBox="0 0 20 20" version="1.1" xmlns="http://www.w3.org/2000/svg" xmlns:xlink="http://www.w3.org/1999/xlink">
    <!-- Generator: Sketch 49.2 (51160) - http://www.bohemiancoding.com/sketch -->
    <title>i-20x20-ir_publiccloud_color</title>
    <desc>Created with Sketch.</desc>
    <defs></defs>
    <g id="i-20x20-ir_publiccloud_color" stroke="none" stroke-width="1" fill="none" fill-rule="evenodd">
        <g id="Icon_IR_Cloud_Clr_20px" transform="translate(3.000000, 5.000000)">
            <path d="M14.2857143,6.52666667 C14.2857143,5.42666667 13.4285714,4.54666667 12.3571429,4.54666667 C12.0714286,4.54666667 11.7857143,4.62 11.5,4.76666667 C11.5,4.69333333 11.5,4.69333333 11.5,4.62 C11.5,3.59333333 10.7142857,2.78666667 9.71428571,2.78666667 C9.28571429,2.78666667 8.92857143,2.93333333 8.57142857,3.15333333 C8.35714286,1.46666667 6.85714286,0.22 5.21428571,0.44 C3.57142857,0.66 2.42857143,2.2 2.64285714,3.88666667 C1.42857143,3.66666667 0.214285714,4.54666667 0.0714285714,5.79333333 C-0.0714285714,7.04 0.714285714,8.21333333 1.92857143,8.43333333 C2,8.43333333 2.14285714,8.43333333 2.21428571,8.43333333 L12.3571429,8.43333333 C13.4285714,8.50666667 14.2857143,7.62666667 14.2857143,6.52666667 C14.2857143,6.52666667 14.2857143,6.52666667 14.2857143,6.52666667 Z" id="Shape" fill="#7EBCE1" fill-rule="nonzero"></path>
            <ellipse id="Oval" fill="#FFFFFF" fill-rule="nonzero" cx="8.85714286" cy="8.28666667" rx="2.28571429" ry="2.34666667"></ellipse>
            <polyline id="Shape" fill="#7FBB42" fill-rule="nonzero" points="8.21428571 7.11333333 9.78571429 8.28666667 8.21428571 9.46 8.21428571 7.11333333"></polyline>
            <path d="M5.07142857,8.28666667 L6.57142857,8.28666667" id="Shape" stroke="#6D6D6D" stroke-width="0.780945455" stroke-linecap="round"></path>
            <path d="M11.1428571,8.28666667 L13.9285714,8.28666667" id="Shape" stroke="#6D6D6D" stroke-width="0.780945455" stroke-linecap="round"></path>
            <path d="M6.57142857,8.28666667 C6.57142857,6.96666667 7.64285714,5.94 8.85714286,5.94 C10.1428571,5.94 11.1428571,7.04 11.1428571,8.28666667 C11.1428571,9.60666667 10.0714286,10.6333333 8.85714286,10.6333333 C8.21428571,10.6333333 7.64285714,10.34 7.21428571,9.9" id="Shape" stroke="#231F20" stroke-width="0.780945455" stroke-linecap="round"></path>
        </g>
    </g>
</svg>