<?xml version="1.0" encoding="UTF-8"?>
<svg width="20px" height="20px" viewBox="0 0 20 20" version="1.1" xmlns="http://www.w3.org/2000/svg" xmlns:xlink="http://www.w3.org/1999/xlink">
    <!-- Generator: Sketch 48 (47235) - http://www.bohemiancoding.com/sketch -->
    <title>i-20x20-wait</title>
    <desc>Created with Sketch.</desc>
    <defs></defs>
    <g id="Symbols" stroke="none" stroke-width="1" fill="none" fill-rule="evenodd">
        <g id="i-20x20-wait">
            <path d="M9.57300273,16 L5,16 C5,15.8021516 5,15.2604576 5,14.3749178 C5,13.4893781 5.16087538,12.9248208 5.48262614,12.6812461 C7.40887322,11.3632135 8.46135476,10.6296034 8.64007079,10.4804156 C8.90814483,10.2566339 8.92701474,10.1321768 8.91916198,9.6876433 C8.91392681,9.39128762 8.82089642,9.16695259 8.64007079,9.01463821 C7.84660686,8.46775855 7.15641327,7.98240478 6.56949003,7.5585769 C5.68910517,6.92283509 5,6.56926554 5,5.6703572 C5,5.07108497 5,4.51429924 5,4 L9.57300273,4 L15,4 C15,4.51429924 15,5.07108497 15,5.6703572 C15,6.56926554 14.3108948,6.92283509 13.43051,7.5585769 C12.8435867,7.98240478 12.1533931,8.46775855 11.3599292,9.01463821 C11.1791036,9.16695259 11.0860732,9.39128762 11.080838,9.6876433 C11.0729853,10.1321768 11.0918552,10.2566339 11.3599292,10.4804156 C11.5386452,10.6296034 12.5911268,11.3632135 14.5173739,12.6812461 C14.8391246,12.9248208 15,13.4893781 15,14.3749178 C15,15.2604576 15,15.8021516 15,16 L9.57300273,16 Z" id="Combined-Shape" fill="#4DBCE1"></path>
            <rect id="Rectangle-12" fill="#7D7B7E" x="4" y="3" width="12" height="1" rx="0.5"></rect>
            <rect id="Rectangle-12-Copy" fill="#7D7B7E" x="4" y="16" width="12" height="1" rx="0.5"></rect>
            <path d="M7,13.9534885 L7,15.0211307 C7,15.1868161 7.13431458,15.3211307 7.3,15.3211307 L12.7,15.3211307 C12.8656854,15.3211307 13,15.1868161 13,15.0211307 L13,13.9415205 C13,13.6061376 12.8469946,13.2890767 12.5844428,13.0803945 L12.0816317,12.6807487 C12.0285583,12.6385647 11.9627613,12.6156012 11.8949655,12.6156012 L10.7868324,12.6156012 C10.621147,12.6156012 10.4868324,12.4812867 10.4868324,12.3156012 C10.4868324,12.3137496 10.4868496,12.311898 10.4868839,12.3100466 L10.5533448,8.72113762 C10.5539117,8.69052954 10.5684672,8.66186735 10.5928468,8.64335212 L12.520163,7.17963702 C12.5641453,7.14623432 12.5727218,7.08350137 12.5393191,7.03951905 C12.5204104,7.01462152 12.4909458,7 12.459682,7 L7.66604778,7 C7.61081931,7 7.56604778,7.04477153 7.56604778,7.1 C7.56604778,7.13212999 7.58148618,7.16230307 7.60754373,7.18110041 L9.63371582,8.64273624 C9.65977337,8.66153359 9.67521177,8.69170667 9.67521177,8.72383666 L9.67521177,12.3156012 C9.67521177,12.4812867 9.5408972,12.6156012 9.37521177,12.6156012 L8.1389979,12.6156012 C8.07300865,12.6156012 8.00886044,12.6373588 7.9564877,12.6775045 L7.43079596,13.0804673 C7.15923024,13.2886328 7,13.6113178 7,13.9534885 Z" id="Path-7" fill="#FFD87C"></path>
            <path d="M5,4 C5,4.51429924 5,5.07108497 5,5.6703572 C5,6.56926554 5.63488623,6.92283509 6.44600223,7.5585769 C6.98674623,7.98240478 7.62263524,8.46775855 8.35366927,9.01463821 C8.5202675,9.16695259 8.60597824,9.39128762 8.61080151,9.6876433 C8.61803641,10.1321768 8.60065118,10.2566339 8.35366927,10.4804156 C8.18901466,10.6296034 7.21934257,11.3632135 5.44465302,12.6812461 C5.14821767,12.9248208 5,13.4893781 5,14.3749178 C5,15.2604576 5,15.8021516 5,16 L8.61080151,16 L8.61080151,12.6812461 L10,10.4804156 L10,9.07712128 L8.35366927,6.65717976 L8.35366927,4 L5,4 Z" id="Combined-Shape" fill="#FFFFFF" opacity="0.340070199"></path>
        </g>
    </g>
</svg>