<svg width="50px" height="50px" enable-background="new 0 0 50 50" version="1.1" viewBox="0 0 50 50" xml:space="preserve" xmlns="http://www.w3.org/2000/svg"><g transform="matrix(.034068 0 0 .034068 2.1687 7.4274)"><title>Artboard 1</title><path class="msportalfx-svg-c15" d="m784.1 243.17v122.95l-235.8-75.279v-290.84h-548.3v420.37h271.42l29.328 189.23h-205.99v420.38h548.3v-292.06l141.04-75.515v1.147h548.3v-420.38zm342.93 254.69a69.685 69.685 0 0 1-120.21 25.571l-186.17 99.671-36.552 19.579-141.04 75.511-207.26 110.99a69.69 69.69 0 1 1-90.564-46.1l-12.717-82.1-14.165-91.384-29.327-189.23-5.669-36.554-12.007-77.451a69.654 69.654 0 1 1 72.427-66.766q-0.084 2.056-0.289 4.105l168.26 53.728 36.55 11.665 235.8 75.293 36.554 11.665 175.01 55.869a69.687 69.687 0 0 1 131.37 45.938z" fill="#59b4d9"/><path class="msportalfx-svg-c15" d="m990.43 480.67-169.78-54.2-36.553-11.681-235.8-75.279-36.55-11.679-177.11-56.535a69.488 69.488 0 0 1-27.77 27.033 75.166 75.166 0 0 1-6.939 3.183l12.758 82.3 5.669 36.554 29.328 189.23 14.152 91.384 12.1 78.052a71.439 71.439 0 0 1 14.343 2.554 69.4 69.4 0 0 1 33.89 22.006l184.34-98.7 36.554-19.574 141.04-75.508 36.554-19.574 172.54-92.381a69.045 69.045 0 0 1-2.761-17.185zm-206.33 109.42-141.04 75.511v-56.005h-277.78l-29.327-189.23h212.35v-62.6l235.8 75.279z" fill="#59b4d9"/></g></svg>
