<svg id="bandwidth" aria-hidden="true" role="presentation" version="1.1" viewBox="0 0 50 50" xmlns="http://www.w3.org/2000/svg">
 <path d="M6.3,6.9v36.1c0,3.7,8.4,6.8,18.7,6.8V6.9H6.3z" fill="#0072C6"/>
 <path d="M24.7,49.8H25c10.4,0,18.7-3,18.7-6.8V6.9h-19V49.8z" fill="#0072C6"/>
 <path d="M24.7,49.8H25c10.4,0,18.7-3,18.7-6.8V6.9h-19V49.8z" fill="#fff" opacity=".15"/>
 <path d="m43.7 6.9c0 3.7-8.4 6.8-18.7 6.8s-18.7-3-18.7-6.8c0-3.7 8.4-6.8 18.7-6.8s18.7 3.1 18.7 6.8" fill="#fff"/>
 <path d="M39.9,6.6C39.9,9,33.2,11,25,11S10.1,9,10.1,6.6c0-2.5,6.7-4.5,14.9-4.5S39.9,4.1,39.9,6.6" fill="#7FBA00"/>
 <path d="m36.8 9.3c2-0.8 3.1-1.7 3.1-2.7 0-2.5-6.7-4.5-14.9-4.5s-14.9 2-14.9 4.5c0 1 1.2 2 3.1 2.7 2.7-1.1 7-1.7 11.8-1.7 4.8-0.1 9.1 0.6 11.8 1.7" fill="#B8D432"/>
 <path d="m23.7 20c0.8 0.8 1.4 1.6 1.7 2.5 0.3 0.6 0.7 2.1 1.4 4.5l2.1-3.1c0.6-0.8 1.2-1.5 2-2.2s1.5-1.2 2.1-1.4c0.4-0.2 0.8-0.2 1.2-0.2 0.7 0 1.2 0.2 1.6 0.5 0.4 0.4 0.6 0.8 0.6 1.3 0 0.6-0.1 1-0.4 1.2-0.4 0.4-0.9 0.6-1.5 0.6-0.3 0-0.7-0.1-1.1-0.2-0.7-0.3-1.2-0.4-1.5-0.4-0.4 0-0.8 0.2-1.3 0.7-1 0.8-2.1 2.4-3.5 4.7l1.9 8.1c0.3 1.2 0.6 2 0.8 2.2s0.4 0.4 0.6 0.4c0.3 0 0.7-0.2 1.2-0.5 0.9-0.7 1.6-1.7 2.2-2.8l0.8 0.4c-1 1.9-2.2 3.4-3.8 4.6-0.9 0.7-1.6 1-2.2 1-0.9 0-1.6-0.5-2.1-1.5-0.3-0.6-1-3.3-2.1-7.9-2.5 4.3-4.4 7-5.9 8.2-1 0.8-1.9 1.2-2.8 1.2-0.6 0-1.2-0.2-1.7-0.7-0.4-0.3-0.6-0.8-0.6-1.4 0-0.5 0.2-1 0.5-1.3s0.8-0.5 1.3-0.5 1 0.3 1.6 0.8c0.4 0.4 0.7 0.5 0.9 0.5s0.4-0.1 0.7-0.4c0.7-0.6 1.7-1.9 3-3.9s2.1-3.4 2.5-4.3c-1-3.8-1.5-5.8-1.6-6.1-0.4-1-0.8-1.7-1.4-2.2-0.6-0.4-1.4-0.6-2.6-0.6h-1.2v-0.8l6.6-1z" fill="#fff"/>
</svg>
