<svg width="50px" height="50px" version="1.1" viewBox="0 0 50 50" xml:space="preserve" xmlns="http://www.w3.org/2000/svg"><path d="M0,44.8c0,1,0.8,1.9,1.8,1.9h46.3c1,0,1.9-0.8,1.9-1.9l0-33.1H0V44.8z" fill="#A0A1A2"/><path d="M48.1,4H1.8C0.8,4,0,4.9,0,5.9v5.7h50l0-5.7C50,4.9,49.2,4,48.1,4" fill="#7A7A7A"/><rect x="3.7" y="15.1" width="20.4" height="13" fill="#0072C6"/><rect x="3.7" y="29.9" width="20.4" height="13" fill="#0072C6"/><rect x="25.9" y="15.1" width="20.3" height="13" fill="#fff"/><rect x="25.9" y="29.9" width="20.3" height="13" fill="#0072C6"/><path d="M2,4C0.9,4,0,4.9,0,6v7.3v3.3v28c0,1.1,0.9,2,2,2h2.2L43.6,4H2z" fill="#fff" opacity=".2"/></svg>
