<svg width="50px" height="50px" enable-background="new 0 0 50 50" version="1.1" viewBox="0 0 50 50" xml:space="preserve" xmlns="http://www.w3.org/2000/svg"><style type="text/css">
	.st0{fill:#59B4D9;}
	.st1{fill:#959595;}
	.st2{fill:#B3B4B5;}
	.st3{fill:#7A7A7A;}
	.st4{opacity:0.2;fill:#FFFFFF;enable-background:new    ;}
</style><path class="st0" d="M15,34H9c-4-1-7.1-4.2-7.1-8.3c0-3.5,2.2-6.6,5.3-7.8c0-0.4-0.1-0.7-0.1-1.1c0-6,4.8-10.8,10.8-10.8  c3.3,0,6.3,1.5,8.4,4c1.2-0.6,2.6-0.9,3.9-0.9c4.7,0,8.8,4.2,8.9,8.8L23,11.3l-8,4.9V34z"/><path class="st1" d="M45,38.4l-22.1,4.2L23,27.1l22,4.1V38.4z M22.9,13.3L45,21.6V30l-22-4.7"/><path class="st2" d="m23 25.3-6 2.8v-11.1l6-3.6m21 15.6-20-4.6v-9.9l20 7.4v7.1zm-11-3.6 2 0.5v-6.5l-2-0.7v6.7zm-2-7.2-2-0.7v6.9l2 0.6v-6.8zm6 8.3 2 0.5v-6.2l-2-0.7v6.4zm-12-3.2 2 0.5v-7.1l-2-0.7v7.3zm18-1.1-2-0.7v6l2 0.5v-5.8zm-19 6.6v12.8l20-3.7v-6.1l-20-3zm1 11.3v-9.9l2 0.2v9.3l-2 0.4zm6-1-2 0.4v-8.7l2 0.3v8zm2-0.3v-7.6l2 0.2v7l-2 0.4zm6-1.1-2 0.3v-6.4l2 0.3v5.8zm4.1-0.6-2.1 0.3v-5.2l1.9 0.2 0.2 4.7z"/><path class="st1" d="m19 25.1-1 0.6v-7.9l1-0.5v7.8zm2-9-1 0.7v7.7l1-0.5v-7.9z"/><path class="st2" d="M17,39.1V30l6-2.9v15.6"/><path class="st1" d="m18.9 39.1-0.9-0.5v-7.7l0.9-0.4v8.6zm2.1-9.6-1 0.5v9.7l1 0.5v-10.7z"/><path class="st3" d="m43 22.9-18-6v-0.8l18 6.2v0.6zm-0.1 9.5-17.9-2.2v0.8l17.9 2.1v-0.7zm-21.9-15.3v-1l-2.9 1.6v0.8l2.9-1.4zm-3 14.4 3-1.1v-0.8l-3 1.3v0.6z"/><path class="st4" d="m45 21.7v16.7l-22 4.2 16.7-23 5.3 2.1z"/></svg>
