<?xml version="1.0" encoding="UTF-8" standalone="no"?>
<!-- Created with Inkscape (http://www.inkscape.org/) -->

<svg
   xmlns:dc="http://purl.org/dc/elements/1.1/"
   xmlns:cc="http://creativecommons.org/ns#"
   xmlns:rdf="http://www.w3.org/1999/02/22-rdf-syntax-ns#"
   xmlns:svg="http://www.w3.org/2000/svg"
   xmlns="http://www.w3.org/2000/svg"
   xmlns:sodipodi="http://sodipodi.sourceforge.net/DTD/sodipodi-0.dtd"
   xmlns:inkscape="http://www.inkscape.org/namespaces/inkscape"
   width="124.88333mm"
   height="124.88333mm"
   viewBox="0 0 124.88333 124.88333"
   version="1.1"
   id="svg8"
   inkscape:version="0.92.2 (5c3e80d, 2017-08-06)"
   sodipodi:docname="cosmos-db.svg">
  <defs
     id="defs2" />
  <sodipodi:namedview
     id="base"
     pagecolor="#ffffff"
     bordercolor="#666666"
     borderopacity="1.0"
     inkscape:pageopacity="0.0"
     inkscape:pageshadow="2"
     inkscape:zoom="1.4"
     inkscape:cx="93.885641"
     inkscape:cy="264.04573"
     inkscape:document-units="mm"
     inkscape:current-layer="layer2"
     showgrid="false"
     fit-margin-top="0"
     fit-margin-left="0"
     fit-margin-right="0"
     fit-margin-bottom="0"
     inkscape:window-width="1595"
     inkscape:window-height="1086"
     inkscape:window-x="2115"
     inkscape:window-y="121"
     inkscape:window-maximized="0" />
  <metadata
     id="metadata5">
    <rdf:RDF>
      <cc:Work
         rdf:about="">
        <dc:format>image/svg+xml</dc:format>
        <dc:type
           rdf:resource="http://purl.org/dc/dcmitype/StillImage" />
        <dc:title></dc:title>
      </cc:Work>
    </rdf:RDF>
  </metadata>
  <g
     inkscape:groupmode="layer"
     id="layer2"
     inkscape:label="Layer 2"
     style="display:inline">
    <g
       style="display:inline"
       id="g1053"
       transform="matrix(5.1369943,0,0,5.1369943,0.77739666,1.3457976)">
      <path
         id="path1043"
         d="m 19.8,10.8 c 1,4.3 -1.6,8.6 -5.9,9.6 C 9.6,21.4 5.4,18.9 4.3,14.6 3.2,10.3 6,6 10.3,5 c 4.2,-1 8.5,1.6 9.5,5.8 z"
         class="msportalfx-svg-c15"
         inkscape:connector-curvature="0"
         style="fill:#55b2db;fill-opacity:1" />
      <path
         id="path1045"
         d="M 11,15.9 C 11,14.7 10,13.8 8.9,13.8 H 8.5 C 8.8,12.7 8.1,11.5 7,11.3 H 4.4 c -0.5,2.4 0.2,4.9 1.9,6.8 H 8.9 C 10.1,18 11,17.1 11,15.9 Z m 2.6,-8.7 v 0.4 h -0.9 c -1.2,0 -2.2,1 -2.2,2.2 0,1.2 1,2.2 2.2,2.2 H 20 C 19.8,9.3 18.2,7 15.9,5.8 H 15 c -0.8,0 -1.4,0.6 -1.4,1.4 z m 6.4,6.3 h -4.3 c -1,0 -1.8,0.8 -1.8,1.8 0,0.3 0.1,0.6 0.2,0.9 -1,0.3 -1.4,1.3 -1.2,2.2 0.2,0.8 0.9,1.2 1.7,1.2 h 1.2 c 2.3,-1.2 3.9,-3.5 4.2,-6.1 z"
         class="msportalfx-svg-c01"
         inkscape:connector-curvature="0"
         style="opacity:0.5;fill:#96c9e4;fill-opacity:1;stroke:none;stroke-opacity:1" />
      <path
         id="path1047"
         d="M 3.2,7.4 C 3.1,7.4 3,7.3 3,7.2 3,5.7 1.8,4.4 0.2,4.4 0.1,4.5 0,4.3 0,4.2 0,4.1 0.1,4 0.2,4 1.8,4 3,2.7 3,1.2 3,1 3.1,1 3.2,1 3.3,1 3.5,1 3.5,1.2 3.5,2.7 4.7,4 6.3,4 6.4,4 6.5,4.1 6.5,4.2 6.5,4.3 6.4,4.4 6.3,4.4 4.8,4.4 3.5,5.6 3.5,7.2 3.5,7.3 3.4,7.4 3.2,7.4 Z"
         class="msportalfx-svg-c13"
         inkscape:connector-curvature="0"
         style="fill:#b7d619;fill-opacity:1" />
      <path
         id="path1049"
         d="m 20.3,23 c -0.1,0 -0.1,0 -0.1,-0.1 0,-0.9 -0.8,-1.6 -1.7,-1.6 -0.1,0 -0.1,0 -0.1,-0.1 0,-0.1 0,-0.1 0.1,-0.1 0.9,0 1.6,-0.7 1.7,-1.6 0,-0.1 0,-0.1 0.1,-0.1 0.1,0 0.1,0 0.1,0.1 0,0.9 0.8,1.6 1.7,1.6 0.1,0 0.1,0 0.1,0.1 0,0.1 0,0.1 -0.1,0.1 -0.9,0 -1.6,0.7 -1.7,1.6 0.1,0.1 0,0.1 -0.1,0.1 z"
         inkscape:connector-curvature="0"
         style="fill:#26bcee" />
      <path
         id="path1051"
         d="M 23.7,5.6 C 22.9,4.4 21.1,4.1 18.2,4.8 17.3,5 16.4,5.3 15.6,5.6 c 0.5,0.3 1.1,0.6 1.5,1 0.5,-0.1 1,-0.3 1.4,-0.4 0.8,-0.2 1.5,-0.3 2.3,-0.3 0.9,0 1.4,0.2 1.6,0.5 0.3,0.5 0,1.7 -1.6,3.6 -0.3,0.3 -0.6,0.7 -1,1 -1.8,1.7 -3.8,3.3 -6,4.6 C 11.7,16.9 9.4,18 7,18.7 4.1,19.6 2.1,19.6 1.7,18.9 1.3,18.2 2.1,16.4 4.3,14.3 4.2,13.7 4.1,13.1 4.1,12.5 c -3.4,3.1 -4.5,5.8 -3.7,7.2 0.6,0.8 1.6,1.2 3,1.2 1.7,-0.1 3.5,-0.4 5.1,-1.1 2.1,-0.8 4.1,-1.8 6,-3 1.9,-1.2 3.7,-2.5 5.4,-4 0.7,-0.6 1.3,-1.2 1.9,-1.9 2,-2.3 2.6,-4.1 1.9,-5.3 z"
         class="msportalfx-svg-c07"
         inkscape:connector-curvature="0" />
    </g>
  </g>
</svg>
