<svg width="50px" height="50px" enable-background="new 0 0 50 50" version="1.1" viewBox="0 0 50 50" xml:space="preserve" xmlns="http://www.w3.org/2000/svg"><path d="m36.7 35.7h1.6v-35.7h-31.3c-1 0.1-3.1 2.6-3.1 2.9v34.5c0 1 0.8 1.9 1.9 1.9h28.5v-0.6l2.4-3z" fill="#0072C6"/><path d="M8.4,1.6c-0.9,0-1.2,0.1-2,0.8C4.7,3.9,6.8,3.9,7.6,3.9h26.7v34.8l2.4-3.1V1.6H8.4z" fill="#E5E5E5"/><g fill="#A0A1A2"><polygon points="34.3 38.7 36.7 35.7 36.7 1.6 34.3 3.9" enable-background="new    " opacity=".5"/><path d="m8.4 21.2c0 0.8-0.6 1.4-1.4 1.4h-4.6c-0.8 0-1.4-0.6-1.4-1.4s0.6-1.4 1.4-1.4h4.6c0.8-0.1 1.4 0.6 1.4 1.4z"/><path d="m8.4 10.9c0 0.8-0.6 1.4-1.4 1.4h-4.6c-0.8 0-1.4-0.6-1.4-1.4s0.6-1.4 1.4-1.4h4.6c0.8 0 1.4 0.7 1.4 1.4z"/><path d="m8.4 31.4c0 0.8-0.6 1.4-1.4 1.4h-4.6c-0.8 0-1.4-0.6-1.4-1.4s0.6-1.4 1.4-1.4h4.6c0.8 0 1.4 0.6 1.4 1.4z"/></g><path d="M23.6,22.2v23.5c0,2.4,5.5,4.4,12.2,4.4v-28H23.6z" fill="#3999C6"/><path d="m35.6 50.2h0.2c6.7 0 12.2-2 12.2-4.4v-23.6h-12.4v28z" fill="#59B4D9"/><path d="m48 22.2c0 2.4-5.5 4.4-12.2 4.4s-12.2-2-12.2-4.4 5.5-4.4 12.2-4.4 12.2 2 12.2 4.4" fill="#fff"/><path d="m45.5 21.9c0 1.6-4.4 2.9-9.7 2.9s-9.7-1.3-9.7-2.9 4.4-2.9 9.7-2.9 9.7 1.3 9.7 2.9" fill="#7FBA00"/><path d="m43.5 23.7c1.3-0.5 2-1.1 2-1.8 0-1.6-4.4-2.9-9.7-2.9-5.4 0-9.7 1.3-9.7 2.9 0 0.7 0.8 1.3 2 1.8 1.8-0.7 4.6-1.1 7.7-1.1s5.9 0.4 7.7 1.1" fill="#B8D432"/></svg>
