<?xml version="1.0" encoding="UTF-8" standalone="no"?>
<!-- Generator: Adobe Illustrator 19.1.0, SVG Export Plug-In . SVG Version: 6.00 Build 0)  -->

<svg
   xmlns:dc="http://purl.org/dc/elements/1.1/"
   xmlns:cc="http://creativecommons.org/ns#"
   xmlns:rdf="http://www.w3.org/1999/02/22-rdf-syntax-ns#"
   xmlns:svg="http://www.w3.org/2000/svg"
   xmlns="http://www.w3.org/2000/svg"
   xmlns:sodipodi="http://sodipodi.sourceforge.net/DTD/sodipodi-0.dtd"
   xmlns:inkscape="http://www.inkscape.org/namespaces/inkscape"
   version="1.1"
   id="Layer_1"
   x="0px"
   y="0px"
   width="50px"
   height="50px"
   viewBox="0 0 50 50"
   enable-background="new 0 0 50 50"
   xml:space="preserve"
   sodipodi:docname="data-gateway.svg"
   inkscape:version="0.92.2 (5c3e80d, 2017-08-06)"><metadata
     id="metadata15"><rdf:RDF><cc:Work
         rdf:about=""><dc:format>image/svg+xml</dc:format><dc:type
           rdf:resource="http://purl.org/dc/dcmitype/StillImage" /></cc:Work></rdf:RDF></metadata><defs
     id="defs13" /><sodipodi:namedview
     pagecolor="#ffffff"
     bordercolor="#666666"
     borderopacity="1"
     objecttolerance="10"
     gridtolerance="10"
     guidetolerance="10"
     inkscape:pageopacity="0"
     inkscape:pageshadow="2"
     inkscape:window-width="640"
     inkscape:window-height="480"
     id="namedview11"
     showgrid="false"
     inkscape:current-layer="Layer_1" /><g
     id="g883"
     transform="matrix(0.88726919,0,0,0.88726919,2.5996112,3.036929)"><path
       id="path864"
       d="m 44,14.2 c 0,-0.4 0.1,-0.9 0.1,-1.3 C 44.1,5.8 38.3,0.1 31.1,0.1 26.9,0 23,2 20.6,5.3 19.1,4.3 17.3,3.8 15.4,3.8 10,3.8 5.6,8.2 5.6,13.5 v 0.8 C 2,16.2 0,19.3 0,23.1 c 0,6 4.9,10.7 11.2,10.7 h 27.6 c 6.3,0 11.2,-4.7 11.2,-10.7 0,-4 -2.2,-7.2 -6,-8.9 z"
       inkscape:connector-curvature="0"
       style="fill:#59b4d9" /><path
       id="path866"
       d="m 7,28 c 0,-4.1 2.1,-7.3 6,-9.3 v -0.8 c 0,-5.7 4.7,-10.3 10.4,-10.3 2,0 3.9,0.5 5.5,1.5 2.5,-3.5 6.7,-5.7 11.2,-5.7 v 0 C 37.7,1.3 34.6,0 31.1,0 26.9,0 23,2 20.6,5.3 19.1,4.3 17.3,3.8 15.4,3.8 10,3.8 5.6,8.2 5.6,13.5 v 0.8 C 2,16.2 0,19.3 0,23.1 0,28.2 3.5,32.4 8.4,33.5 7.5,31.9 7,30 7,28 Z"
       enable-background="new    "
       inkscape:connector-curvature="0"
       style="opacity:0.2;fill:#ffffff" /><polygon
       id="polygon868"
       points="17.167,37.738 24.032,44.244 24.032,32.646 26.931,32.646 26.931,44.244 33.833,37.696 33.833,41.249 25.504,50 17.167,41.28 "
       style="fill:#804998" /><polygon
       id="polygon870"
       points="33.833,28.908 26.968,22.402 26.968,34 24.069,34 24.069,22.402 17.167,28.95 17.167,25.397 25.496,16.646 33.833,25.366 "
       style="fill:#ffffff" /></g></svg>