<svg id="j" class="" width="17" height="13.67" data-islogo="true" data-type="63" focusable="false" role="presentation" version="1.1" viewBox="0 0 17 13.67" xmlns="http://www.w3.org/2000/svg">
 <g id="e" transform="translate(-.5 -2.17)">
  <defs id="a">
   <linearGradient id="a06af2a2-274d-4a73-a200-95a0a116ffce" x1="9" x2="9" y1="15.83" y2="5.79" gradientUnits="userSpaceOnUse">
    <stop id="h" stop-color="#b3b3b3" offset="0"/>
    <stop id="i" stop-color="#c1c1c1" offset=".26"/>
    <stop id="q" stop-color="#e6e6e6" offset="1"/>
   </linearGradient>
  </defs>
  <path id="f" d="m0.5 5.79h17v9.48a0.57 0.57 0 0 1-0.57 0.57h-15.86a0.57 0.57 0 0 1-0.57-0.57z" fill="url(#a06af2a2-274d-4a73-a200-95a0a116ffce)"/>
  <path id="b" d="m1.07 2.17h15.86a0.57 0.57 0 0 1 0.57 0.57v3.05h-17v-3.06a0.57 0.57 0 0 1 0.57-0.56z" fill="#37c2b1"/>
  <path id="n" d="m2.82 11.125h12.37c0.1452 0.0092 0.2601 0.21263 0.26 0.46038v2.4042c9.9e-5 0.24775-0.2398 0.4434-0.385 0.45257l-12.112-0.007813c-0.1452-0.009176-0.39291-0.19701-0.39281-0.44476v-2.4042c-9.95e-5 -0.24775 0.1148-0.45121 0.26-0.46038z" fill="#258277" stroke-width="1.3058"/>
  <path id="k" d="m2.8111 8.6984h12.37a0.27 0.42361 0 0 1 0.26 0.4236v2.2122a0.27 0.42361 0 0 1-0.26 0.42361h-12.37a0.27 0.42361 0 0 1-0.26-0.42361v-2.1337a0.27 0.42361 0 0 1 0.26-0.50205z" fill="#37c2b1" stroke-width="1.2526"/>
  <path id="o" d="m4.28 11.448h8.9877a0.19617 0.22612 0 0 1 0.18891 0.22612v1.1808a0.19617 0.22612 0 0 1-0.18891 0.22612h-8.9877a0.19617 0.22612 0 0 1-0.18891-0.22612v-1.1808a0.19617 0.22612 0 0 1 0.18891-0.22612z" fill="#258277" stroke-width=".78006"/>
  <path id="c" d="m2.8102 6.3964h12.381a0.27025 0.42133 0 0 1 0.26024 0.42133v2.1847a0.27025 0.42133 0 0 1-0.26024 0.42133h-12.381a0.27025 0.42133 0 0 1-0.26024-0.42133v-2.1847a0.27025 0.42133 0 0 1 0.26024-0.42133z" fill="#fff" stroke-width="1.2498"/>
  <path id="d" d="m1.7778 5.8046h13.917a0.30378 0.13119 0 0 1 0.29253 0.13119v0.6851a0.30378 0.13119 0 0 1-0.29253 0.13119h-13.917a0.30378 0.13119 0 0 1-0.29253-0.13119v-0.66081a0.30378 0.13119 0 0 1 0.29253-0.15548z" fill="#e3e3e3" stroke-width=".73937"/>
  <path id="p" d="m4.7918 9.1151h8.0774a0.17631 0.22886 0 0 1 0.16978 0.22886v1.1952a0.17631 0.22886 0 0 1-0.16978 0.22886h-8.0774a0.17631 0.22886 0 0 1-0.16978-0.22886v-1.1528a0.17631 0.22886 0 0 1 0.16978-0.27124z" fill="#37c2b1" stroke-width=".74397"/>
  <path id="m" d="m2.5703 9.0021a2.1474 1.2775 0 0 0 2.1484 1.267 2.1474 1.2775 0 0 0 2.1465-1.267zm4.2949 0a2.1474 1.2775 0 0 0 2.1484 1.267 2.1474 1.2775 0 0 0 2.1465-1.267zm4.2949 0a2.1474 1.2775 0 0 0 2.1484 1.267 2.1474 1.2775 0 0 0 2.1465-1.267z" fill="#fff" style="paint-order:stroke fill markers"/>
  <path id="g" d="m2.5511 11.378a2.1474 1.2775 0 0 0 2.1484 1.267 2.1474 1.2775 0 0 0 2.1465-1.267zm4.2949 0a2.1474 1.2775 0 0 0 2.1484 1.267 2.1474 1.2775 0 0 0 2.1465-1.267zm4.2949 0a2.1474 1.2775 0 0 0 2.1484 1.267 2.1474 1.2775 0 0 0 2.1465-1.267z" fill="#37c2b1" style="paint-order:stroke fill markers"/>
  <path id="l" d="m2.5511 6.6617a2.1474 1.2775 0 0 0 2.1484 1.267 2.1474 1.2775 0 0 0 2.1465-1.267zm4.2949 0a2.1474 1.2775 0 0 0 2.1484 1.267 2.1474 1.2775 0 0 0 2.1465-1.267zm4.2949 0a2.1474 1.2775 0 0 0 2.1484 1.267 2.1474 1.2775 0 0 0 2.1465-1.267z" fill="#e3e3e3" style="paint-order:stroke fill markers"/>
 </g>
</svg>
