<?xml version="1.0" encoding="UTF-8" standalone="no"?>
<svg
   xmlns:dc="http://purl.org/dc/elements/1.1/"
   xmlns:cc="http://creativecommons.org/ns#"
   xmlns:rdf="http://www.w3.org/1999/02/22-rdf-syntax-ns#"
   xmlns:svg="http://www.w3.org/2000/svg"
   xmlns="http://www.w3.org/2000/svg"
   xmlns:sodipodi="http://sodipodi.sourceforge.net/DTD/sodipodi-0.dtd"
   xmlns:inkscape="http://www.inkscape.org/namespaces/inkscape"
   viewBox="0 0 16 16"
   role="presentation"
   focusable="false"
   aria-hidden="true"
   version="1.1"
   id="svg16"
   sodipodi:docname="deployment-center.svg"
   inkscape:version="0.92.2 (5c3e80d, 2017-08-06)"
   inkscape:export-filename="C:\Users\user\Desktop\deployment-center.png"
   inkscape:export-xdpi="9600"
   inkscape:export-ydpi="9600">
  <metadata
     id="metadata22">
    <rdf:RDF>
      <cc:Work
         rdf:about="">
        <dc:format>image/svg+xml</dc:format>
        <dc:type
           rdf:resource="http://purl.org/dc/dcmitype/StillImage" />
        <dc:title></dc:title>
      </cc:Work>
    </rdf:RDF>
  </metadata>
  <defs
     id="defs20" />
  <sodipodi:namedview
     pagecolor="#ffffff"
     bordercolor="#666666"
     borderopacity="1"
     objecttolerance="10"
     gridtolerance="10"
     guidetolerance="10"
     inkscape:pageopacity="0"
     inkscape:pageshadow="2"
     inkscape:window-width="640"
     inkscape:window-height="480"
     id="namedview18"
     showgrid="false"
     inkscape:current-layer="svg16" />
  <g
     id="g14">
    <path
       d="M9.023 1.497L6.96.629.397 3.394l2.311 1.018zm2.506 1.053L5.172 5.498l1.764.776 6.74-2.821z"
       style="fill: #3999c6;"
       id="path2" />
    <path
       d="M10.106 12.196a3.228 3.228 0 0 1 3.816-3.173v-5.14l-6.68 2.909v8.579l3.375-1.437a3.21 3.21 0 0 1-.51-1.738z"
       style="fill: #59b4d9;"
       id="path4" />
    <path
       d="M10.106 12.196a3.228 3.228 0 0 1 3.816-3.173v-5.14l-6.68 2.909v8.579l3.375-1.437a3.21 3.21 0 0 1-.51-1.738z"
       opacity=".5"
       style="fill: #fff;"
       id="path6" />
    <path
       d="M13.311 9.472c-1.482 0-2.688 1.206-2.688 2.688s1.206 2.689 2.688 2.689c1.483 0 2.689-1.206 2.689-2.689s-1.206-2.688-2.689-2.688zm-1.3 3.807c-.091-.09-.097-.222.001-.322l.762-.814-.603-.637c-.046-.049-.094-.095-.139-.145-.096-.105-.094-.236.005-.33.083-.08.227-.077.317.015.269.275.535.552.802.829.044.046.09.09.132.138.091.104.095.227-.002.323-.317.317-.637.631-.959.943a.218.218 0 0 1-.316 0zm2.6-.943c-.318.317-.637.631-.96.943a.218.218 0 0 1-.315 0c-.092-.09-.097-.222 0-.322l.762-.814-.602-.637c-.046-.049-.094-.095-.14-.145-.096-.105-.093-.236.006-.33.083-.08.226-.077.316.015.27.275.536.552.803.829.044.046.09.09.132.138.091.104.094.227-.002.323z"
       style="fill: #7a7a7a"
       id="path8" />
    <path
       d="M4.93 6.155v2.219L3.613 6.75l-1.328.518V4.92L0 3.886v8.66l6.678 2.825V6.882L4.93 6.155zm-.34 4.56c-.134.09-.317.053-.383-.046L3.459 9.56v2.421c0 .105-.124.268-.301.268s-.302-.163-.302-.268v-2.73l-.78.408c-.073.039-.27 0-.346-.146-.076-.144-.001-.338.072-.377l1.347-.705a.193.193 0 0 1 .119-.041.2.2 0 0 1 .161.087l.01.01 1.251 1.856c.067.1.034.281-.1.371z"
       style="fill: #59b4d9"
       id="path10" />
    <path
       d="M11.643 14.264l.735-1.035-.051.05a.218.218 0 0 1-.316 0c-.091-.09-.097-.222.001-.322l.762-.814-.603-.637c-.046-.049-.094-.095-.139-.145-.096-.105-.094-.236.005-.33.083-.08.227-.077.317.015.269.275.535.552.802.829l.105.11.296-.415-.06-.064c-.047-.049-.095-.095-.14-.145-.097-.105-.094-.236.005-.33.083-.08.226-.077.316.015l.145.149.925-1.303a2.67 2.67 0 0 0-1.437-.42 2.691 2.691 0 0 0-2.688 2.688c0 .852.4 1.611 1.02 2.104z"
       style="    fill: #a0a1a2"
       id="path12" />
  </g>
</svg>
