<?xml version="1.0" encoding="UTF-8" standalone="no"?>
<!-- Created with Inkscape (http://www.inkscape.org/) -->

<svg
   xmlns:dc="http://purl.org/dc/elements/1.1/"
   xmlns:cc="http://creativecommons.org/ns#"
   xmlns:rdf="http://www.w3.org/1999/02/22-rdf-syntax-ns#"
   xmlns:svg="http://www.w3.org/2000/svg"
   xmlns="http://www.w3.org/2000/svg"
   xmlns:sodipodi="http://sodipodi.sourceforge.net/DTD/sodipodi-0.dtd"
   xmlns:inkscape="http://www.inkscape.org/namespaces/inkscape"
   width="124.88333mm"
   height="124.88333mm"
   viewBox="0 0 124.88333 124.88333"
   version="1.1"
   id="svg8"
   inkscape:version="0.92.2 (5c3e80d, 2017-08-06)"
   sodipodi:docname="dotnet-core.svg">
  <defs
     id="defs2" />
  <sodipodi:namedview
     id="base"
     pagecolor="#ffffff"
     bordercolor="#666666"
     borderopacity="1.0"
     inkscape:pageopacity="0.0"
     inkscape:pageshadow="2"
     inkscape:zoom="1.979899"
     inkscape:cx="115.60406"
     inkscape:cy="259.55655"
     inkscape:document-units="mm"
     inkscape:current-layer="layer2"
     showgrid="false"
     fit-margin-top="0"
     fit-margin-left="0"
     fit-margin-right="0"
     fit-margin-bottom="0"
     inkscape:window-width="1991"
     inkscape:window-height="1363"
     inkscape:window-x="1911"
     inkscape:window-y="0"
     inkscape:window-maximized="0" />
  <metadata
     id="metadata5">
    <rdf:RDF>
      <cc:Work
         rdf:about="">
        <dc:format>image/svg+xml</dc:format>
        <dc:type
           rdf:resource="http://purl.org/dc/dcmitype/StillImage" />
        <dc:title />
      </cc:Work>
    </rdf:RDF>
  </metadata>
  <g
     inkscape:groupmode="layer"
     id="layer2"
     inkscape:label="Layer 2"
     style="display:inline">
    <ellipse
       style="opacity:0.98999999;fill:#5c2d91;fill-opacity:1;stroke:none;stroke-width:4;stroke-linecap:butt;stroke-linejoin:round;stroke-miterlimit:4;stroke-dasharray:none;stroke-dashoffset:0;stroke-opacity:1;paint-order:normal"
       id="path867"
       cx="62.555058"
       cy="62.403049"
       rx="60.948662"
       ry="60.456474" />
    <g
       aria-label="NET"
       style="font-style:normal;font-weight:normal;font-size:10.58333302px;line-height:1.25;font-family:sans-serif;letter-spacing:0px;word-spacing:0px;fill:#fefdfe;fill-opacity:1;stroke:none;stroke-width:0.26458332"
       id="text871">
      <path
         d="M 52.848175,72.231232 H 47.738409 L 29.43255,43.879474 q -0.694531,-1.066601 -1.141015,-2.232422 h -0.148828 q 0.198437,1.141016 0.198437,4.886524 V 72.231232 H 24.173957 V 36.66131 h 5.407421 l 17.809766,27.905273 q 1.116211,1.736328 1.438672,2.38125 h 0.09922 q -0.248047,-1.53789 -0.248047,-5.233789 V 36.66131 h 4.167188 z"
         style="font-style:normal;font-variant:normal;font-weight:normal;font-stretch:normal;font-size:50.79999924px;font-family:'Segoe UI';-inkscape-font-specification:'Segoe UI';stroke-width:0.26458332;fill:#fefdfe;fill-opacity:1"
         id="path873" />
      <path
         d="M 81.026301,72.231232 H 62.174739 V 36.66131 h 18.057812 v 3.770313 H 66.341926 v 11.831836 h 12.848828 v 3.745507 H 66.341926 v 12.451953 h 14.684375 z"
         style="font-style:normal;font-variant:normal;font-weight:normal;font-stretch:normal;font-size:50.79999924px;font-family:'Segoe UI';-inkscape-font-specification:'Segoe UI';stroke-width:0.26458332;fill:#fefdfe;fill-opacity:1"
         id="path875" />
      <path
         d="M 108.90677,40.431623 H 98.637631 V 72.231232 H 94.470444 V 40.431623 H 84.226108 V 36.66131 h 24.680662 z"
         style="font-style:normal;font-variant:normal;font-weight:normal;font-stretch:normal;font-size:50.79999924px;font-family:'Segoe UI';-inkscape-font-specification:'Segoe UI';stroke-width:0.26458332;fill:#fefdfe;fill-opacity:1"
         id="path877" />
    </g>
    <circle
       style="opacity:0.98999999;fill:#ffffff;fill-opacity:1;stroke:none;stroke-width:9.77777767;stroke-linecap:butt;stroke-linejoin:round;stroke-miterlimit:4;stroke-dasharray:none;stroke-dashoffset:0;stroke-opacity:1;paint-order:normal"
       id="path835"
       cx="15.591518"
       cy="69.604317"
       r="3.1183035" />
    <g
       aria-label="Core"
       style="font-style:normal;font-weight:normal;font-size:10.58333302px;line-height:1.25;font-family:sans-serif;letter-spacing:0px;word-spacing:0px;fill:#ffffff;fill-opacity:1;stroke:none;stroke-width:0.26458332"
       id="text856">
      <path
         d="m 51.586373,95.223132 q -1.752864,0.926041 -4.365625,0.926041 -3.373437,0 -5.401909,-2.171788 -2.028473,-2.171788 -2.028473,-5.699566 0,-3.792361 2.282032,-6.129514 2.282031,-2.337152 5.78776,-2.337152 2.248958,0 3.726215,0.650434 v 1.97335 q -1.697743,-0.94809 -3.748263,-0.94809 -2.723004,0 -4.420747,1.81901 -1.686719,1.819011 -1.686719,4.861719 0,2.888368 1.576476,4.60816 1.5875,1.708767 4.156163,1.708767 2.38125,0 4.12309,-1.058333 z"
         style="font-style:normal;font-variant:normal;font-weight:normal;font-stretch:normal;font-size:22.57777786px;font-family:'segoe ui';-inkscape-font-specification:'segoe ui';stroke-width:0.26458332;fill:#ffffff;fill-opacity:1"
         id="path858" />
      <path
         d="m 59.281339,96.149173 q -2.502517,0 -4.001823,-1.576475 -1.488281,-1.5875 -1.488281,-4.200261 0,-2.84427 1.554427,-4.442795 1.554427,-1.598524 4.20026,-1.598524 2.524566,0 3.935678,1.554427 1.422135,1.554427 1.422135,4.310503 0,2.700955 -1.532379,4.332553 -1.521354,1.620572 -4.090017,1.620572 z m 0.132292,-10.296701 q -1.741841,0 -2.756077,1.190625 -1.014236,1.179601 -1.014236,3.263195 0,2.006423 1.025261,3.163975 1.02526,1.157552 2.745052,1.157552 1.752864,0 2.68993,-1.135503 0.948091,-1.135504 0.948091,-3.230122 0,-2.116666 -0.948091,-3.263194 -0.937066,-1.146528 -2.68993,-1.146528 z"
         style="font-style:normal;font-variant:normal;font-weight:normal;font-stretch:normal;font-size:22.57777786px;font-family:'segoe ui';-inkscape-font-specification:'segoe ui';stroke-width:0.26458332;fill:#ffffff;fill-opacity:1"
         id="path860" />
      <path
         d="m 73.679082,86.425736 q -0.474045,-0.363802 -1.367013,-0.363802 -1.157553,0 -1.940278,1.091406 -0.771702,1.091406 -0.771702,2.976563 V 95.88459 H 67.792103 V 84.595701 h 1.807986 v 2.326129 h 0.0441 q 0.38585,-1.190625 1.1796,-1.852084 0.79375,-0.672482 1.774914,-0.672482 0.705555,0 1.080381,0.15434 z"
         style="font-style:normal;font-variant:normal;font-weight:normal;font-stretch:normal;font-size:22.57777786px;font-family:'segoe ui';-inkscape-font-specification:'segoe ui';stroke-width:0.26458332;fill:#ffffff;fill-opacity:1"
         id="path862" />
      <path
         d="M 84.714413,90.692142 H 76.74384 q 0.0441,1.885156 1.014236,2.910417 0.970139,1.02526 2.667882,1.02526 1.907205,0 3.505729,-1.256771 v 1.697744 q -1.488281,1.080381 -3.935677,1.080381 -2.392274,0 -3.759288,-1.532378 -1.367014,-1.543403 -1.367014,-4.332552 0,-2.634809 1.488281,-4.288455 1.499306,-1.66467 3.715191,-1.66467 2.215886,0 3.428559,1.43316 1.212674,1.433159 1.212674,3.979774 z M 82.86233,89.159764 q -0.01103,-1.565452 -0.760678,-2.436372 -0.738628,-0.87092 -2.061545,-0.87092 -1.278819,0 -2.171788,0.915017 -0.892969,0.915018 -1.10243,2.392275 z"
         style="font-style:normal;font-variant:normal;font-weight:normal;font-stretch:normal;font-size:22.57777786px;font-family:'segoe ui';-inkscape-font-specification:'segoe ui';stroke-width:0.26458332;fill:#ffffff;fill-opacity:1"
         id="path864" />
    </g>
  </g>
</svg>
