<?xml version="1.0" encoding="UTF-8" standalone="no"?>
<svg
   xmlns:dc="http://purl.org/dc/elements/1.1/"
   xmlns:cc="http://creativecommons.org/ns#"
   xmlns:rdf="http://www.w3.org/1999/02/22-rdf-syntax-ns#"
   xmlns:svg="http://www.w3.org/2000/svg"
   xmlns="http://www.w3.org/2000/svg"
   xmlns:sodipodi="http://sodipodi.sourceforge.net/DTD/sodipodi-0.dtd"
   xmlns:inkscape="http://www.inkscape.org/namespaces/inkscape"
   viewBox="0 0 18 18"
   data-islogo="true"
   class=""
   role="presentation"
   focusable="false"
   id="FxSymbol0-0a7"
   data-type="1"
   version="1.1"
   sodipodi:docname="event-grid-topic.svg"
   inkscape:export-filename="C:\Users\user\OneDrive\Personal\01. MarczakIO\images\tags\event-grid-topic.png"
   inkscape:export-xdpi="5333.3301"
   inkscape:export-ydpi="5333.3301"
   inkscape:version="0.92.2 (5c3e80d, 2017-08-06)">
  <metadata
     id="metadata71">
    <rdf:RDF>
      <cc:Work
         rdf:about="">
        <dc:format>image/svg+xml</dc:format>
        <dc:type
           rdf:resource="http://purl.org/dc/dcmitype/StillImage" />
      </cc:Work>
    </rdf:RDF>
  </metadata>
  <defs
     id="defs69" />
  <sodipodi:namedview
     pagecolor="#ffffff"
     bordercolor="#666666"
     borderopacity="1"
     objecttolerance="10"
     gridtolerance="10"
     guidetolerance="10"
     inkscape:pageopacity="0"
     inkscape:pageshadow="2"
     inkscape:window-width="640"
     inkscape:window-height="480"
     id="namedview67"
     showgrid="false"
     inkscape:current-layer="FxSymbol0-0a7" />
  <g
     id="g64">
    <title
       id="title2" />
    <defs
       id="defs26">
      <linearGradient
         id="edc561ac-a1d6-439f-a08b-594ef0214ee3"
         x1="7.94"
         y1="14.26"
         x2="7.94"
         y2="10.31"
         gradientUnits="userSpaceOnUse">
        <stop
           offset="0"
           stop-color="#5e9624"
           id="stop4" />
        <stop
           offset=".01"
           stop-color="#5e9724"
           id="stop6" />
        <stop
           offset=".35"
           stop-color="#6cab29"
           id="stop8" />
        <stop
           offset=".68"
           stop-color="#73b82c"
           id="stop10" />
        <stop
           offset="1"
           stop-color="#76bc2d"
           id="stop12" />
      </linearGradient>
      <linearGradient
         id="afc27830-8354-4c08-adf9-e299527ebe55"
         x1="7.94"
         y1="7.7"
         x2="7.94"
         y2="3.75"
         gradientUnits="userSpaceOnUse">
        <stop
           offset="0"
           stop-color="#5e9624"
           id="stop15" />
        <stop
           offset=".01"
           stop-color="#5e9724"
           id="stop17" />
        <stop
           offset=".35"
           stop-color="#6cab29"
           id="stop19" />
        <stop
           offset=".68"
           stop-color="#73b82c"
           id="stop21" />
        <stop
           offset="1"
           stop-color="#76bc2d"
           id="stop23" />
      </linearGradient>
    </defs>
    <title
       id="title28">Icon-integration-206</title>
    <g
       fill="#a3a3a3"
       id="g34">
      <path
         d="M1.06 1.42h1.29V5a.29.29 0 0 1-.29.29H.77A.29.29 0 0 1 .48 5V2a.57.57 0 0 1 .58-.58z"
         id="path30" />
      <path
         d="M1.06 1.42h1.29V5a.29.29 0 0 1-.29.29H.77A.29.29 0 0 1 .48 5V2a.57.57 0 0 1 .58-.58z"
         opacity=".5"
         id="path32" />
    </g>
    <g
       fill="#a3a3a3"
       id="g40">
      <path
         d="M15.65 1.42h1.29a.57.57 0 0 1 .57.57V5a.29.29 0 0 1-.29.29h-1.28a.29.29 0 0 1-.29-.29V1.42z"
         id="path36" />
      <path
         d="M15.65 1.42h1.29a.57.57 0 0 1 .57.57V5a.29.29 0 0 1-.29.29h-1.28a.29.29 0 0 1-.29-.29V1.42z"
         opacity=".5"
         id="path38" />
    </g>
    <path
       d="M17.51 1.98v1.25h-17V1.98a.57.57 0 0 1 .57-.57h15.86a.57.57 0 0 1 .57.57z"
       fill="#949494"
       id="path42" />
    <g
       fill="#a3a3a3"
       id="g48">
      <path
         d="M.77 12.69h1.29a.29.29 0 0 1 .29.29v3.61H1.06A.57.57 0 0 1 .48 16v-3a.29.29 0 0 1 .29-.31z"
         id="path44" />
      <path
         d="M.77 12.69h1.29a.29.29 0 0 1 .29.29v3.61H1.06A.57.57 0 0 1 .48 16v-3a.29.29 0 0 1 .29-.31z"
         opacity=".5"
         id="path46" />
    </g>
    <g
       fill="#a3a3a3"
       id="g54">
      <path
         d="M15.94 12.69h1.29a.29.29 0 0 1 .29.29v3a.57.57 0 0 1-.57.57h-1.3V13a.29.29 0 0 1 .29-.31z"
         id="path50" />
      <path
         d="M15.94 12.69h1.29a.29.29 0 0 1 .29.29v3a.57.57 0 0 1-.57.57h-1.3V13a.29.29 0 0 1 .29-.31z"
         opacity=".5"
         id="path52" />
    </g>
    <path
       d="M.48 16.02v-1.25h17v1.25a.57.57 0 0 1-.57.57H1.05a.57.57 0 0 1-.57-.57z"
       fill="#949494"
       id="path56" />
    <path
       d="M14.91 8.84L13.09 7a.09.09 0 0 0-.16.07V8.2a.09.09 0 0 1-.1.1H7.59a1.05 1.05 0 0 0-.83-.41 1.1 1.1 0 1 0 0 2.19 1.08 1.08 0 0 0 .84-.42h5.23a.09.09 0 0 1 .1.09v1.11a.09.09 0 0 0 .16.06l1.82-1.81a.2.2 0 0 0 0-.27z"
       fill="#5ea0ef"
       id="path58" />
    <path
       d="M11.55 5.59L9.73 3.78a.09.09 0 0 0-.16.07V5a.09.09 0 0 1-.09.1H6.2a1.07 1.07 0 0 0-.84-.41 1.1 1.1 0 1 0 .85 1.77h3.27a.09.09 0 0 1 .09.09v1.06a.09.09 0 0 0 .16.06l1.82-1.81a.2.2 0 0 0 0-.27z"
       fill="url(#afc27830-8354-4c08-adf9-e299527ebe55)"
       id="path60" />
    <path
       d="M11.55 12.15l-1.82-1.81a.09.09 0 0 0-.16.07v1.1a.1.1 0 0 1-.09.1H6.2a1.07 1.07 0 0 0-.84-.41 1.1 1.1 0 1 0 .85 1.8h3.27a.09.09 0 0 1 .09.09v1.11a.09.09 0 0 0 .16.06l1.82-1.81a.2.2 0 0 0 0-.3z"
       fill="url(#edc561ac-a1d6-439f-a08b-594ef0214ee3)"
       id="path62" />
  </g>
</svg>
