<svg width="32px" height="32px" enable-background="new -783 985 32 32" version="1.1" viewBox="-783 985 32 32" xml:space="preserve" xmlns="http://www.w3.org/2000/svg"><style type="text/css">
	.st0{fill:#B8D432;}
	.st1{fill:#0072C6;}
	.st2{fill:#006DD6;}
</style><rect class="st0" transform="matrix(-.5751 -.8181 .8181 -.5751 -2020.6 940.1)" x="-772.3" y="994" width="12.3" height="1.6"/><rect class="st0" transform="matrix(-.4968 -.8679 .8679 -.4968 -2009.1 845.52)" x="-765.7" y="1004.4" width="12.6" height="1.6"/><rect class="st0" transform="matrix(-.082745 -.9966 .9966 -.082745 -1831.1 315.61)" x="-771.1" y="992.8" width="1.6" height="15.3"/><rect class="st0" transform="matrix(-.8565 -.5161 .5161 -.8565 -1939.1 1469.5)" x="-766.1" y="999.1" width="1.6" height="10.4"/><path class="st1" d="m-751.5 985h-8.1c-0.3 0-0.5 0.2-0.5 0.6v2.9c0 0.3 0.2 0.5 0.5 0.5h4.6v4.5c0 0.3 0.2 0.5 0.6 0.5h2.9c0.3 0 0.5-0.2 0.5-0.5v-8c0-0.3-0.2-0.5-0.5-0.5z"/><path class="st1" d="m-782.5 1016.9h8.1c0.3 0 0.5-0.2 0.5-0.6v-2.9c0-0.3-0.2-0.5-0.5-0.5h-4.6v-4.5c0-0.3-0.2-0.5-0.6-0.5h-2.9c-0.3 0-0.5 0.2-0.5 0.5v8c0 0.3 0.2 0.5 0.5 0.5z"/><circle class="st2" cx="-769.6" cy="989.9" r="3.1"/><circle class="st2" cx="-762.5" cy="999.9" r="3.7"/><circle class="st2" cx="-756.3" cy="1010.9" r="2.9"/><circle class="st2" cx="-767.8" cy="1008.9" r="2.5"/><circle class="st2" cx="-777.9" cy="1001.3" r="2.5"/></svg>
