<?xml version="1.0" encoding="UTF-8" standalone="no"?>
<svg
   xmlns:dc="http://purl.org/dc/elements/1.1/"
   xmlns:cc="http://creativecommons.org/ns#"
   xmlns:rdf="http://www.w3.org/1999/02/22-rdf-syntax-ns#"
   xmlns:svg="http://www.w3.org/2000/svg"
   xmlns="http://www.w3.org/2000/svg"
   xmlns:sodipodi="http://sodipodi.sourceforge.net/DTD/sodipodi-0.dtd"
   xmlns:inkscape="http://www.inkscape.org/namespaces/inkscape"
   viewBox="0 0 18 18"
   class=""
   role="presentation"
   focusable="false"
   id="FxSymbol0-0bd"
   data-type="1"
   version="1.1"
   sodipodi:docname="key-vault.svg"
   inkscape:export-filename="C:\Users\user\OneDrive\Personal\01. MarczakIO\images\tags\key-vault.png"
   inkscape:export-xdpi="6776.4702"
   inkscape:export-ydpi="6776.4702"
   inkscape:version="0.92.2 (5c3e80d, 2017-08-06)">
  <metadata
     id="metadata51">
    <rdf:RDF>
      <cc:Work
         rdf:about="">
        <dc:format>image/svg+xml</dc:format>
        <dc:type
           rdf:resource="http://purl.org/dc/dcmitype/StillImage" />
      </cc:Work>
    </rdf:RDF>
  </metadata>
  <defs
     id="defs49" />
  <sodipodi:namedview
     pagecolor="#ffffff"
     bordercolor="#666666"
     borderopacity="1"
     objecttolerance="10"
     gridtolerance="10"
     guidetolerance="10"
     inkscape:pageopacity="0"
     inkscape:pageshadow="2"
     inkscape:window-width="640"
     inkscape:window-height="480"
     id="namedview47"
     showgrid="false"
     inkscape:current-layer="FxSymbol0-0bd" />
  <g
     id="g44">
    <title
       id="title2" />
    <defs
       id="defs30">
      <radialGradient
         id="ec478bd3-5b38-4e7f-b661-11f355578bff"
         cx="38.95"
         cy="182.07"
         r="9.88"
         gradientTransform="matrix(.94 0 0 .94 -28.71 -163.24)"
         gradientUnits="userSpaceOnUse">
        <stop
           offset=".27"
           stop-color="#ffd70f"
           id="stop4" />
        <stop
           offset=".49"
           stop-color="#ffcb12"
           id="stop6" />
        <stop
           offset=".88"
           stop-color="#feac19"
           id="stop8" />
        <stop
           offset="1"
           stop-color="#fea11b"
           id="stop10" />
      </radialGradient>
      <radialGradient
         id="fb114c93-7c16-4540-899a-0796041629e6"
         cx="9"
         cy="9"
         r="8.5"
         gradientUnits="userSpaceOnUse">
        <stop
           offset=".18"
           stop-color="#5ea0ef"
           id="stop13" />
        <stop
           offset=".56"
           stop-color="#5c9fee"
           id="stop15" />
        <stop
           offset=".69"
           stop-color="#559ced"
           id="stop17" />
        <stop
           offset=".78"
           stop-color="#4a97e9"
           id="stop19" />
        <stop
           offset=".86"
           stop-color="#3990e4"
           id="stop21" />
        <stop
           offset=".93"
           stop-color="#2387de"
           id="stop23" />
        <stop
           offset=".99"
           stop-color="#087bd6"
           id="stop25" />
        <stop
           offset="1"
           stop-color="#0078d4"
           id="stop27" />
      </radialGradient>
    </defs>
    <path
       d="M9 .5A8.5 8.5 0 1 0 17.5 9 8.51 8.51 0 0 0 9 .5zm0 15.84A7.34 7.34 0 1 1 16.34 9 7.34 7.34 0 0 1 9 16.34z"
       fill="url(#fb114c93-7c16-4540-899a-0796041629e6)"
       id="path32" />
    <circle
       cx="9"
       cy="9"
       r="7.34"
       style="fill: rgb(255, 255, 255);"
       id="circle34" />
    <path
       d="M13.44 7.33a1.84 1.84 0 0 0 0-2.59l-3.15-3.16a1.83 1.83 0 0 0-2.58 0L4.56 4.74a1.84 1.84 0 0 0 0 2.59L7.18 10a.51.51 0 0 1 .15.36v4.88a.63.63 0 0 0 .18.44l1.2 1.2a.41.41 0 0 0 .58 0l1.16-1.16.68-.68a.25.25 0 0 0 0-.34l-.49-.49a.27.27 0 0 1 0-.37l.49-.49a.25.25 0 0 0 0-.34l-.49-.49a.27.27 0 0 1 0-.37l.49-.49a.25.25 0 0 0 0-.34l-.68-.69v-.25zM9 2.35a1 1 0 0 1 0 2.07 1 1 0 1 1 0-2.07z"
       fill="url(#ec478bd3-5b38-4e7f-b661-11f355578bff)"
       id="path36" />
    <path
       d="M8.18 15.3a.23.23 0 0 0 .38-.17v-4a.24.24 0 0 0-.11-.2.22.22 0 0 0-.34.2v4a.28.28 0 0 0 .07.17z"
       fill="#ff9300"
       opacity=".75"
       id="path38" />
    <rect
       x="6.48"
       y="5.79"
       width="5.17"
       height=".61"
       rx=".28"
       fill="#ff9300"
       opacity=".75"
       id="rect40" />
    <rect
       x="6.48"
       y="6.78"
       width="5.17"
       height=".61"
       rx=".28"
       fill="#ff9300"
       opacity=".75"
       id="rect42" />
  </g>
</svg>
