<svg width="50px" height="50px" enable-background="new 0 0 50 50" version="1.1" viewBox="0 0 50 50" xml:space="preserve" xmlns="http://www.w3.org/2000/svg"><g clip-rule="evenodd" fill="#A0A1A2" fill-rule="evenodd"><rect x="1" y="26" width="10" height="10"/><rect x="1" y="13" width="10" height="10"/><rect x="1" y="39" width="10" height="10"/><rect x="14" y="39" width="10" height="10"/><rect x="27" y="39" width="10" height="10"/></g><path d="m31.5 1c-9.795 0-17.5 7.705-17.5 17.5v17.5h17.5c9.795 0 17.5-7.705 17.5-17.5s-7.705-17.5-17.5-17.5z" clip-rule="evenodd" fill="#0072C6" fill-rule="evenodd"/><g clip-rule="evenodd" fill="#fff" fill-rule="evenodd"><path d="m21 16h3v11h-3v-11z"/><path d="m28 19h3v8h-3v-8z"/><path d="M35,12h3v15h-3V12z"/></g></svg>
