<svg width="50px" height="50px" version="1.1" viewBox="0 0 50 50" xml:space="preserve" xmlns="http://www.w3.org/2000/svg"><path d="m50 37.198c0 5.001-11.194 9.054-25 9.054s-25-4.053-25-9.054v-4.88h50v4.88z" fill="#7FBA00"/><path d="m50 32.318c0 5.001-11.194 9.054-25 9.054s-25-4.053-25-9.054c0-5 11.193-9.054 25-9.054s25 4.054 25 9.054" fill="#B8D432"/><path d="m33.013 31.797c0 1.33-3.588 2.407-8.014 2.407s-8.015-1.077-8.015-2.407 3.589-2.407 8.015-2.407 8.014 1.078 8.014 2.407" fill="#7FBA00"/><path d="m43.071 26.115c-3.502-1.327-8.104-2.269-13.279-2.633l-3.244 6.004c1.596 0.094 3.023 0.329 4.127 0.662l12.396-4.033z" fill="#fff" opacity=".25"/><path d="m5.902 38.208c3.601 1.543 8.598 2.643 14.288 3.045l3.793-7.02c-1.579-0.06-3.014-0.257-4.168-0.552l-13.913 4.527z" fill="#fff" opacity=".25"/><path d="m50 17.682c0 5.001-11.194 9.054-25 9.054s-25-4.054-25-9.054v-4.88h50v4.88z" fill="#0072C6"/><path d="m50 12.802c0 5.001-11.194 9.054-25 9.054s-25-4.054-25-9.054 11.193-9.054 25-9.054 25 4.053 25 9.054" fill="#59B4D9"/><path d="m33.013 12.281c0 1.33-3.588 2.407-8.014 2.407s-8.015-1.077-8.015-2.407 3.589-2.407 8.015-2.407 8.014 1.077 8.014 2.407" fill="#0072C6"/><path d="m43.071 6.549c-3.502-1.327-8.104-2.269-13.279-2.633l-3.244 6.004c1.596 0.094 3.023 0.329 4.127 0.662l12.396-4.033z" fill="#fff" opacity=".25"/><path d="m5.902 18.642c3.601 1.543 8.598 2.643 14.288 3.045l3.793-7.02c-1.579-0.06-3.014-0.257-4.168-0.552l-13.913 4.527z" fill="#fff" opacity=".25"/></svg>
