<svg width="50px" height="50px" enable-background="new 0 0 50 50" version="1.1" viewBox="0 0 50 50" xml:space="preserve" xmlns="http://www.w3.org/2000/svg"><path d="m44 14.2c0-0.4 0.1-0.9 0.1-1.3 0-7.1-5.8-12.8-13-12.8-4.2-0.1-8.1 1.9-10.5 5.2-1.5-1-3.3-1.5-5.2-1.5-5.4 0-9.8 4.4-9.8 9.7v0.8c-3.6 1.9-5.6 5-5.6 8.8 0 6 4.9 10.7 11.2 10.7h27.6c6.3 0 11.2-4.7 11.2-10.7 0-4-2.2-7.2-6-8.9z" fill="#59B4D9"/><path d="m7 28c0-4.1 2.1-7.3 6-9.3v-0.8c0-5.7 4.7-10.3 10.4-10.3 2 0 3.9 0.5 5.5 1.5 2.5-3.5 6.7-5.7 11.2-5.7-2.4-2.1-5.5-3.4-9-3.4-4.2 0-8.1 2-10.5 5.3-1.5-1-3.3-1.5-5.2-1.5-5.4 0-9.8 4.4-9.8 9.7v0.8c-3.6 1.9-5.6 5-5.6 8.8 0 5.1 3.5 9.3 8.4 10.4-0.9-1.6-1.4-3.5-1.4-5.5z" fill="#fff" opacity=".2"/><path d="m34.3 31c-1 3.9-4.4 6.6-8.4 6.6-0.7 0-1.4-0.1-2.1-0.3-1-0.3-2-0.7-2.8-1.3-0.9-0.6-1.6-1.4-2.2-2.2-1.3-2-1.9-4.4-1.3-6.9 1-3.9 4.4-6.6 8.4-6.6 0.7 0 1.4 0.1 2.1 0.3 2.2 0.6 4.1 1.9 5.3 3.9 1.2 1.9 1.6 4.3 1 6.5" fill="#fff"/><path d="m34.3 31c-1 3.9-4.4 6.6-8.4 6.6-0.7 0-1.4-0.1-2.1-0.3-1-0.3-2-0.7-2.8-1.3-0.9-0.6-1.6-1.4-2.2-2.2-1.3-2-1.9-4.4-1.3-6.9 1-3.9 4.4-6.6 8.4-6.6 0.7 0 1.4 0.1 2.1 0.3 2.2 0.6 4.1 1.9 5.3 3.9 1.2 1.9 1.6 4.3 1 6.5" fill="#59B4D9" opacity=".1"/><path d="m30.6 21.7c-0.8-0.5-1.7-0.9-2.6-1.1-0.7-0.2-1.4-0.3-2.1-0.3-4 0-7.4 2.7-8.4 6.6-0.6 2.5-0.1 5 1.3 6.9 0.2 0.3 0.5 0.7 0.8 1 1.8-5.7 5.8-10.4 11-13.1" fill="#59B4D9" opacity=".3"/><path d="m36.5 22.6c-1.7-2.8-4.4-4.8-7.6-5.6-1-0.2-2-0.4-3-0.4-5.7 0-10.6 3.9-12 9.4-0.8 3.1-0.3 6.3 1.3 9.1l-9.4 9.5c-1.2 1.2-1.2 3.3 0 4.5 0.7 0.6 1.5 0.9 2.3 0.9s1.6-0.3 2.3-0.9l9.4-9.5c1 0.6 2.1 1 3.2 1.3 1 0.2 2 0.4 3 0.4 5.7 0 10.6-3.9 12-9.4 0.7-3.2 0.2-6.5-1.5-9.3zm-2.2 8.4c-1 3.9-4.4 6.6-8.4 6.6-0.7 0-1.4-0.1-2.1-0.3-1-0.3-2-0.7-2.8-1.3-0.9-0.6-1.6-1.4-2.2-2.2-1.3-2-1.9-4.4-1.3-6.9 1-3.9 4.4-6.6 8.4-6.6 0.7 0 1.4 0.1 2.1 0.3 2.2 0.6 4.1 1.9 5.3 3.9s1.6 4.3 1 6.5z" fill="#3E3E3E"/><path d="m18.9 39.1c-1.3-0.9-2.3-1.9-3.2-3.2-0.2-0.3-0.3-0.5-0.5-0.8l-0.8 0.9-0.1 0.1c0.1 0.2 0.2 0.4 0.4 0.6 1 1.4 2.1 2.6 3.5 3.6 0.1 0.1 0.4 0.2 0.7 0.3l0.9-0.9c-0.4-0.3-0.6-0.4-0.9-0.6z" fill="#1E1E1E" opacity=".5"/></svg>
