<svg width="50px" height="50px" enable-background="new 0 0 50 50" version="1.1" viewBox="0 0 50 50" xml:space="preserve" xmlns="http://www.w3.org/2000/svg"><path d="M0,45.1c0,1,0.8,1.9,1.8,1.9h46.3c1,0,1.9-0.8,1.9-1.9V12H0V45.1z" fill="#A0A1A2"/><path d="M48.1,4.1H1.8C0.8,4.1,0,5,0,6v6h50V6c0-1-0.8-1.6-1.9-1.6" fill="#7A7A7A"/><rect x="4" y="25.5" width="42" height="7" fill="#B8D432"/><rect x="4" y="15" width="42" height="7" fill="#fff"/><rect x="4" y="36" width="42" height="7" fill="#B8D432"/><path d="M2,4C0.9,4,0,4.9,0,6v7.3v3.3v28c0,1.1,0.9,2,2,2h2.2L43.6,4H2z" enable-background="new    " fill="#fff" opacity=".2"/></svg>
