<?xml version="1.0" encoding="UTF-8" standalone="no"?>
<svg
   xmlns:dc="http://purl.org/dc/elements/1.1/"
   xmlns:cc="http://creativecommons.org/ns#"
   xmlns:rdf="http://www.w3.org/1999/02/22-rdf-syntax-ns#"
   xmlns:svg="http://www.w3.org/2000/svg"
   xmlns="http://www.w3.org/2000/svg"
   version="1.1"
   id="FxSymbol0-071"
   focusable="false"
   role="presentation"
   class="fxs-portal-svg"
   viewBox="0 0 50 50">
  <metadata
     id="metadata25">
    <rdf:RDF>
      <cc:Work
         rdf:about="">
        <dc:format>image/svg+xml</dc:format>
        <dc:type
           rdf:resource="http://purl.org/dc/dcmitype/StillImage" />
        <dc:title></dc:title>
      </cc:Work>
    </rdf:RDF>
  </metadata>
  <defs
     id="defs23" />
  <path
     style="stroke:none;stroke-opacity:1;fill:#a0a1a2;fill-opacity:1"
     d="m 0,44.4 c 0,1 0.7,1.9 1.9,1.9 h 46.2 c 1,0 1.9,-0.7 1.9,-1.9 V 11.3 H 0 Z"
     class="msportalfx-svg-c03"
     id="path4" />
  <path
     style="fill:#7a7a7a;fill-opacity:1"
     d="M 48.1,3.7 H 1.9 C 0.7,3.7 0,4.6 0,5.6 v 5.7 H 50 V 5.6 c 0,-1 -0.7,-1.9 -1.9,-1.9"
     class="msportalfx-svg-c04"
     id="path6" />
  <path
     style="fill:#ffffff;fill-opacity:1"
     d="m 18.8,14.6 h 12.6 v 7.6 H 18.8 Z"
     class="msportalfx-svg-c01"
     id="path8" />
  <path
     style="fill:#fcd236;fill-opacity:1"
     d="m 18.8,24.9 h 12.6 v 7.6 H 18.8 Z m 15,0 h 12.6 v 7.6 H 33.8 Z"
     class="msportalfx-svg-c11"
     id="path10" />
  <path
     style="fill:#ffffff;fill-opacity:1"
     d="m 33.8,14.6 h 12.6 v 7.6 H 33.8 Z m -30,0 h 12.6 v 7.6 H 3.8 Z m 0,10.3 h 12.6 v 7.6 H 3.8 Z"
     class="msportalfx-svg-c01"
     id="path12" />
  <path
     style="fill:#fcd236;fill-opacity:1"
     d="m 3.8,35.1 h 12.6 v 7.6 H 3.8 Z m 15,0 h 12.6 v 7.6 H 18.8 Z m 15,0 h 12.6 v 7.6 H 33.8 Z"
     class="msportalfx-svg-c11"
     id="path14" />
  <path
     d="M 1.9,3.7 C 1,3.7 0,4.6 0,5.6 v 38.8 c 0,1 1,1.9 1.9,1.9 H 4 L 43.6,3.7 Z"
     class="msportalfx-svg-c01"
     id="path16"
     style="opacity:0.18;fill:#ffffff;fill-opacity:1" />
</svg>
