<svg width="50px" height="50px" enable-background="new 0 0 50 50" version="1.1" viewBox="0 0 50 50" xml:space="preserve" xmlns="http://www.w3.org/2000/svg"><g fill="#5558af"><path d="m0.50914 5.9645 28.527-4.9908v48.547l-28.584-4.9908z"/><path d="m33.629 9.0837a4.5371 4.5371 0 0 0-2.721 0.91981v7.2372a4.5371 4.5371 0 0 0 2.721 0.91685 4.5371 4.5371 0 0 0 4.5369-4.5369 4.5371 4.5371 0 0 0-4.5369-4.5369z" opacity=".99" style="paint-order:normal"/><circle cx="45.2" cy="16.4" r="4.5371" opacity=".99" style="paint-order:normal"/><path d="m30.908 20.823h8.3936v16.504s-1.4178 4.4237-8.3369 3.176z"/><path d="m40.833 23.602h8.8473v9.698s-0.62385 3.1193-5.5012 3.573h-3.2894z"/></g><path d="m8.2222 16.57 13.278-0.73728-0.0068 3.4595-4.9908 0.18442-0.05671 14.504-3.2327-0.22686v-14.131l-4.9908 0.17953z" fill="#fff"/></svg>
