<svg width="50px" height="50px" enable-background="new 0 0 50 50" version="1.1" viewBox="0 0 50 50" xml:space="preserve" xmlns="http://www.w3.org/2000/svg"><path d="m33 38h-13.729c1.649 5.999-0.566 6.859-10.271 6.859v3.141h33v-3.141c-9.705 0-10.656-0.857-9.005-6.859" fill="#7A7A7A"/><path d="M46.98,2H2.719C1.215,2,0.002,3.345,0.002,4.847v31.329c0,1.493,1.213,2.823,2.717,2.823H46.98  c1.501,0,3.021-1.33,3.021-2.823V4.847C50.001,3.341,48.481,2,46.98,2" fill="#A0A1A2"/><path d="M47.011,2.003c-0.011,0-0.021-0.002-0.031-0.002H2.718  c-1.504,0-2.717,1.344-2.717,2.847v31.328C0.001,37.67,1.214,39,2.718,39h1.053L47.011,2.003z" enable-background="new    " fill="#fff" opacity=".2"/><polygon points="46 6 46 35 4 35 4 6" fill="#59B4D9"/><rect x="9" y="45" width="33" height="3" fill="#A0A1A2"/><path d="m25.518 4.095c0 0.392-0.318 0.71-0.71 0.71-0.393 0-0.709-0.318-0.709-0.71 0-0.393 0.316-0.71 0.709-0.71 0.392 0 0.71 0.317 0.71 0.71" fill="#B8D432"/><g fill="#fff"><path d="m25.028 19.394c-0.045 0-0.091-0.014-0.134-0.038l-8.804-5.082c-0.081-0.048-0.132-0.137-0.132-0.231 0-0.095 0.051-0.183 0.132-0.23l8.751-5.049c0.082-0.046 0.182-0.046 0.263 0l8.807 5.084c0.082 0.047 0.131 0.135 0.131 0.23 0 0.096-0.049 0.183-0.131 0.23l-8.748 5.048c-0.043 0.024-0.087 0.038-0.135 0.038"/><path d="m23.763 31.746c-0.05 0-0.095-0.012-0.134-0.036l-8.778-5.066c-0.085-0.047-0.136-0.133-0.136-0.231v-10.166c0-0.096 0.051-0.183 0.136-0.231 0.081-0.049 0.181-0.049 0.268 0l8.777 5.064c0.078 0.05 0.13 0.137 0.13 0.233v10.166c0 0.097-0.052 0.183-0.13 0.231-0.044 0.024-0.09 0.036-0.133 0.036" enable-background="new    " opacity=".7"/><path d="m26.248 31.746c-0.048 0-0.093-0.012-0.138-0.036-0.078-0.048-0.129-0.134-0.129-0.231v-10.102c0-0.094 0.051-0.182 0.129-0.231l8.777-5.064c0.084-0.048 0.182-0.048 0.264 0 0.084 0.047 0.135 0.135 0.135 0.23v10.101c0 0.098-0.051 0.184-0.135 0.231l-8.774 5.066c-0.037 0.024-0.083 0.036-0.129 0.036" enable-background="new    " opacity=".4"/></g></svg>
