<svg width="50px" height="50px" enable-background="new 0 0 50 50" version="1.1" viewBox="0 0 50 50" xml:space="preserve" xmlns="http://www.w3.org/2000/svg"><path d="M35.723,0H2.066C0.923,0,0.001,1.021,0.001,2.162v23.439c0,1.134,0.922,2.144,2.066,2.144h33.656  c1.141,0,2.297-1.01,2.297-2.144V2.162C38.02,1.018,36.864,0,35.723,0" fill="#A0A1A2"/><path d="M35.746,0.002c-0.008,0-0.016-0.002-0.024-0.002H2.066C0.922,0.001,0,1.021,0,2.163v23.438  c0,1.134,0.922,2.144,2.066,2.144h0.801L35.746,0.002z" fill="#fff" opacity=".2"/><polygon points="35.129 24.823 2.882 24.823 2.882 2.922 35.129 2.875" fill="#59B4D9"/><path d="m19.404 1.591c0 0.298-0.242 0.539-0.54 0.539-0.299 0-0.539-0.241-0.539-0.539s0.24-0.539 0.539-0.539c0.298 0 0.54 0.241 0.54 0.539" fill="#B8D432"/><path d="m19.425 13.209c-0.035 0-0.069-0.011-0.102-0.029l-6.695-3.859c-0.061-0.036-0.1-0.104-0.1-0.175 0-0.072 0.039-0.139 0.1-0.175l6.654-3.834c0.062-0.035 0.138-0.035 0.2 0l6.697 3.861c0.062 0.036 0.1 0.103 0.1 0.175 0 0.073-0.037 0.139-0.1 0.175l-6.652 3.833c-0.032 0.017-0.065 0.028-0.102 0.028" fill="#fff"/><path d="m41.671 7.456h-33.656c-1.144 0-2.066 1.021-2.066 2.162v23.439c0 1.134 0.922 2.144 2.066 2.144h33.656c1.141 0 2.297-1.01 2.297-2.144v-23.439c1e-3 -1.144-1.155-2.162-2.297-2.162" fill="#A0A1A2"/><path d="m41.695 7.458c-8e-3 0-0.016-2e-3 -0.024-2e-3h-33.656c-1.144 0-2.066 1.021-2.066 2.162v23.438c0 1.134 0.922 2.144 2.066 2.144h0.801l32.879-27.742z" fill="#fff" opacity=".2"/><polygon points="41.078 32.279 8.83 32.279 8.83 10.378 41.078 10.331" fill="#59B4D9"/><path d="m25.352 9.047c0 0.298-0.242 0.539-0.54 0.539-0.299 0-0.539-0.241-0.539-0.539s0.24-0.539 0.539-0.539c0.298 0 0.54 0.24 0.54 0.539" fill="#B8D432"/><path d="m25.374 20.664c-0.035 0-0.069-0.011-0.102-0.029l-6.695-3.859c-0.061-0.036-0.1-0.104-0.1-0.175 0-0.072 0.039-0.139 0.1-0.175l6.654-3.834c0.062-0.035 0.138-0.035 0.2 0l6.697 3.861c0.062 0.036 0.1 0.103 0.1 0.175 0 0.073-0.037 0.139-0.1 0.175l-6.652 3.833c-0.033 0.018-0.065 0.028-0.102 0.028" fill="#fff"/><path d="m36.636 42.698h-10.339c1.242 4.38-0.427 5.008-7.737 5.008v2.294h24.858v-2.293c-7.309-1e-3 -8.026-0.626-6.782-5.009" fill="#7A7A7A"/><path d="m47.703 14.955h-33.656c-1.144 0-2.066 1.021-2.066 2.162v23.439c0 1.134 0.922 2.144 2.066 2.144h33.656c1.141 0 2.297-1.01 2.297-2.144v-23.439c0-1.143-1.156-2.162-2.297-2.162" fill="#A0A1A2"/><path d="m47.727 14.958c-8e-3 0-0.016-2e-3 -0.024-2e-3h-33.657c-1.144 0-2.066 1.021-2.066 2.162v23.438c0 1.134 0.922 2.144 2.066 2.144h0.801l32.88-27.742z" fill="#fff" opacity=".2"/><polygon points="47.109 39.779 14.862 39.779 14.862 17.878 47.109 17.83" fill="#59B4D9"/><rect x="18.561" y="47.706" width="24.858" height="2.294" fill="#A0A1A2"/><path d="m31.384 16.546c0 0.298-0.242 0.539-0.54 0.539-0.299 0-0.539-0.241-0.539-0.539s0.24-0.539 0.539-0.539c0.298 0 0.54 0.241 0.54 0.539" fill="#B8D432"/><g fill="#fff"><path d="m31.405 28.164c-0.035 0-0.069-0.011-0.102-0.029l-6.695-3.859c-0.061-0.036-0.1-0.104-0.1-0.175 0-0.072 0.039-0.139 0.1-0.175l6.654-3.834c0.062-0.035 0.138-0.035 0.2 0l6.697 3.861c0.062 0.036 0.1 0.103 0.1 0.175 0 0.073-0.037 0.139-0.1 0.175l-6.652 3.833c-0.032 0.017-0.065 0.028-0.102 0.028"/><path d="m30.443 37.544c-0.038 0-0.072-9e-3 -0.102-0.027l-6.675-3.847c-0.065-0.036-0.104-0.101-0.104-0.175v-7.72c0-0.073 0.039-0.139 0.104-0.175 0.062-0.037 0.137-0.037 0.204 0l6.674 3.846c0.059 0.038 0.099 0.104 0.099 0.177v7.72c0 0.074-0.039 0.139-0.099 0.175-0.033 0.017-0.068 0.026-0.101 0.026" opacity=".7"/><path d="m32.333 37.544c-0.037 0-0.071-9e-3 -0.105-0.027-0.059-0.036-0.098-0.102-0.098-0.175v-7.672c0-0.071 0.039-0.138 0.098-0.175l6.674-3.845c0.064-0.036 0.138-0.036 0.201 0 0.064 0.036 0.102 0.102 0.102 0.175v7.671c0 0.074-0.039 0.14-0.102 0.175l-6.672 3.847c-0.028 0.017-0.064 0.026-0.098 0.026" opacity=".4"/></g></svg>
